<?xml version="1.0" encoding="UTF-8" standalone="no"?>
<!-- Created with Inkscape (http://www.inkscape.org/) -->

<svg
   width="132.72591mm"
   height="135.04527mm"
   viewBox="0 0 132.72592 135.04526"
   version="1.1"
   id="svg1"
   xml:space="preserve"
   xmlns="http://www.w3.org/2000/svg"
   xmlns:svg="http://www.w3.org/2000/svg"><defs
     id="defs1" /><g
     id="layer1"
     transform="translate(267.14528,-724.81481)"><g
       id="g2"
       transform="translate(0,6.2171335)"><path
         style="display:inline;fill:#ff6600;fill-opacity:1;stroke:none;stroke-width:0.706001;stroke-linecap:round;stroke-linejoin:round;stroke-miterlimit:10;paint-order:markers stroke fill"
         d="m -256.19767,727.09226 c 1.86802,-4.31465 7.99321,-5.44974 12.6159,-6.30795 7.12454,-1.32266 15.78343,2.36374 21.63766,2.09514 7.97386,-0.36583 13.82187,-4.44893 21.80226,-4.27646 6.20905,0.13418 13.62361,4.17444 19.83285,4.29897 6.46502,0.12966 14.70696,-2.79777 21.15404,-2.29931 7.23743,0.55957 11.59311,0.63363 14.76988,6.21678 2.55684,4.49357 -5.6906,14.74402 -5.6906,14.74402 l -24.48968,15.58435 -49.72151,0.92763 -25.04627,-7.9777 c 0,0 -10.04405,-15.66162 -6.86453,-23.00547 z"
         id="path794-2-2-70-0" /><path
         style="fill:#031e2d;fill-opacity:1;stroke:none;stroke-width:0.898597"
         d="m -248.34141,230.73436 c -10.80127,-3.45358 -20.19388,-11.44279 -25.05013,-21.30725 -3.32026,-6.74437 -4.45601,-13.48044 -8.20433,-48.6585 l -2.62113,-24.59965 a 1.5152924,1.5152924 62.46616 0 0 -0.51236,-0.98281 l -2.781,-2.41871 c -2.45474,-2.13496 -3.35042,-3.72065 -3.7307,-6.60474 -0.44299,-3.35965 -0.18449,-4.11128 2.25296,-6.54866 a 9.5528678,9.5528678 157.8776 0 1 6.77316,-2.75338 h 50.74029 51.75741 a 6.8766184,6.8766184 23.588204 0 1 5.04365,2.20228 l 0.17401,0.18776 c 3.39635,3.66473 3.09912,8.08564 -0.83159,12.67674 -0.28633,0.33443 -0.77153,0.8582 -1.06992,1.18192 l -2.20083,2.38763 a 3.8030127,3.8030127 114.71693 0 0 -0.98024,2.12953 l -3.06209,25.81329 c -1.76396,14.87026 -3.81678,30.08533 -4.5618,33.8113 -3.45679,17.28799 -14.69597,29.66766 -30.72488,33.84266 -7.55484,1.96779 -23.72995,1.77661 -30.41048,-0.35941 z"
         id="path23-6-7-6-0-93-6"
         transform="matrix(1.1128443,0,0,1.1128443,57.158348,594.95126)" /><path
         style="fill:#ff6600;fill-opacity:1;stroke-width:1"
         d="m -175.73035,781.44345 c -1.57352,-0.58773 -3.28639,-1.88796 -4.14512,-3.14663 -2.08105,-3.05014 -1.99914,-6.79216 0.30596,-13.9762 2.41676,-7.53199 2.89581,-10.10954 2.90892,-15.65091 0.0109,-4.65696 -0.79572,-6.83179 -1.03378,-7.88066 -1.23607,-5.44589 -3.40112,-13.35452 -3.32014,-15.8944 0.0162,-0.50743 0.40844,-0.65906 0.73049,-0.67421 4.52323,-0.21285 5.52731,-0.23462 7.60312,-0.20547 4.74437,0.0666 7.38852,-0.19449 8.28243,0.38452 0.17581,0.11388 0.31826,0.33586 0.30631,0.60119 -0.10495,2.33037 -5.09664,10.39945 -5.12071,22.98392 -0.0137,6.78265 0.33024,8.90883 2.46327,15.26001 2.79781,8.33062 2.64496,12.51825 -0.58096,15.91694 -0.60838,0.64093 -1.65317,1.44777 -2.32176,1.79294 -1.42429,0.73533 -4.71062,0.9997 -6.07803,0.48894 z"
         id="path543-6-3-4-6-3" /><g
         id="g800-0-2"
         transform="matrix(1.2923815,0,0,1.2923815,-2.581592,937.07668)"
         style="stroke-width:0.773766"><rect
           style="fill:#e6e6e6;fill-opacity:1;stroke:none;stroke-width:23.2129;stroke-linecap:round;stroke-linejoin:round;stroke-miterlimit:10;stroke-dasharray:none;stroke-opacity:1;paint-order:markers stroke fill"
           id="rect799-6-0"
           width="24.177376"
           height="6.0443439"
           x="-190.35654"
           y="-131.80396"
           ry="3.022172" /><rect
           style="fill:#e6e6e6;fill-opacity:1;stroke:none;stroke-width:23.2129;stroke-linecap:round;stroke-linejoin:round;stroke-miterlimit:10;stroke-dasharray:none;stroke-opacity:1;paint-order:markers stroke fill"
           id="rect799-8-2-6"
           width="24.177376"
           height="6.0443439"
           x="-187.71075"
           y="-117.92845"
           ry="3.022172" /><rect
           style="fill:#e6e6e6;fill-opacity:1;stroke:none;stroke-width:23.2129;stroke-linecap:round;stroke-linejoin:round;stroke-miterlimit:10;stroke-dasharray:none;stroke-opacity:1;paint-order:markers stroke fill"
           id="rect799-1-6-1"
           width="24.177376"
           height="6.0443439"
           x="-185.06496"
           y="-104.05295"
           ry="3.022172" /></g></g></g></svg>
