<?xml version="1.0" encoding="UTF-8" standalone="no"?>
<!-- Created with Inkscape (http://www.inkscape.org/) -->

<svg
   width="19.049999mm"
   height="19.049999mm"
   viewBox="0 0 19.050001 19.049998"
   version="1.1"
   id="svg1"
   xml:space="preserve"
   xmlns="http://www.w3.org/2000/svg"
   xmlns:svg="http://www.w3.org/2000/svg"><defs
     id="defs1" /><g
     id="layer2"
     transform="translate(33.996803,-967.95776)"><g
       id="g820-3-9"
       transform="matrix(0.13954197,0,0,0.13954197,-14.383808,1082.703)"
       style="stroke-width:0.95982"><path
         style="display:inline;fill:#008080;fill-opacity:1;stroke:none;stroke-width:0.677634;stroke-linecap:round;stroke-linejoin:round;stroke-miterlimit:10;paint-order:markers stroke fill"
         d="m -127.70897,-813.06801 c 1.86802,-4.3147 7.99321,-5.4497 12.6159,-6.308 7.12454,-1.3226 15.783427,2.3638 21.637657,2.0952 7.97386,-0.3658 13.82187,-4.4489 21.80226,-4.2765 6.20905,0.1342 13.62361,4.1745 19.83285,4.299 6.46502,0.1297 14.70696,-2.7978 21.154048,-2.2993 7.237427,0.5596 11.593101,0.6336 14.76988,6.2168 2.556836,4.4935 -5.690608,14.744 -5.690608,14.744 l -24.48968,15.5843 -49.72151,0.9277 -25.046267,-7.9777 c 0,0 -10.04405,-15.6617 -6.86453,-23.0055 z"
         id="path794-2-2-1-1-2" /><path
         style="fill:#cccccc;fill-opacity:1;stroke:none;stroke-width:0.862491"
         d="m -248.34141,230.73436 c -10.80127,-3.45358 -20.19388,-11.44279 -25.05013,-21.30725 -3.32026,-6.74437 -4.45601,-13.48044 -8.20433,-48.6585 l -2.62113,-24.59965 a 1.5152924,1.5152924 62.46616 0 0 -0.51236,-0.98281 l -2.781,-2.41871 c -2.45474,-2.13496 -3.35042,-3.72065 -3.7307,-6.60474 -0.44299,-3.35965 -0.18449,-4.11128 2.25296,-6.54866 a 9.5528678,9.5528678 157.8776 0 1 6.77316,-2.75338 h 50.74029 51.75741 a 6.8766184,6.8766184 23.588204 0 1 5.04365,2.20228 l 0.17401,0.18776 c 3.39635,3.66473 3.09912,8.08564 -0.83159,12.67674 -0.28633,0.33443 -0.77153,0.8582 -1.06992,1.18192 l -2.20083,2.38763 a 3.8030127,3.8030127 114.71693 0 0 -0.98024,2.12953 l -3.06209,25.81329 c -1.76396,14.87026 -3.81678,30.08533 -4.5618,33.8113 -3.45679,17.28799 -14.69597,29.66766 -30.72488,33.84266 -7.55484,1.96779 -23.72995,1.77661 -30.41048,-0.35941 z"
         id="path23-6-7-6-0-9-9-0"
         transform="matrix(1.1128443,0,0,1.1128443,185.64705,-945.20901)" /><path
         style="fill:#008080;fill-opacity:1;stroke-width:0.95982"
         d="m -47.241653,-758.71681 c -1.57352,-0.5877 -3.28639,-1.888 -4.14512,-3.1466 -2.08105,-3.0502 -1.99914,-6.7922 0.30596,-13.9762 2.41676,-7.532 2.89581,-10.1096 2.90892,-15.651 0.0109,-4.6569 -0.79572,-6.8317 -1.03378,-7.8806 -1.23607,-5.4459 -3.40112,-13.3545 -3.32014,-15.8944 0.0162,-0.5074 0.40844,-0.6591 0.73049,-0.6742 4.52323,-0.2129 5.52731,-0.2346 7.60312,-0.2055 4.74437,0.067 7.38852,-0.1945 8.28243,0.3845 0.17581,0.1139 0.31826,0.3359 0.30631,0.6012 -0.10495,2.3304 -5.09664,10.3995 -5.12071,22.9839 -0.0137,6.7827 0.33024,8.9089 2.46327,15.2601 2.79781,8.3306 2.64496,12.5182 -0.58096,15.9169 -0.60838,0.6409 -1.65317,1.4478 -2.32176,1.7929 -1.42429,0.7354 -4.71062,0.9997 -6.07803,0.489 z"
         id="path543-6-3-4-0-8-6" /><g
         id="g800-3-6-8"
         transform="matrix(1.2923815,0,0,1.2923815,125.90711,-603.08359)"
         style="stroke-width:0.742675"><rect
           style="fill:#031e2d;fill-opacity:1;stroke:none;stroke-width:22.2802;stroke-linecap:round;stroke-linejoin:round;stroke-miterlimit:10;stroke-dasharray:none;stroke-opacity:1;paint-order:markers stroke fill"
           id="rect799-4-5-9"
           width="24.177376"
           height="6.0443439"
           x="-190.35654"
           y="-131.80396"
           ry="3.022172" /><rect
           style="fill:#031e2d;fill-opacity:1;stroke:none;stroke-width:22.2802;stroke-linecap:round;stroke-linejoin:round;stroke-miterlimit:10;stroke-dasharray:none;stroke-opacity:1;paint-order:markers stroke fill"
           id="rect799-8-1-0-2"
           width="24.177376"
           height="6.0443439"
           x="-187.71075"
           y="-117.92845"
           ry="3.022172" /><rect
           style="fill:#031e2d;fill-opacity:1;stroke:none;stroke-width:22.2802;stroke-linecap:round;stroke-linejoin:round;stroke-miterlimit:10;stroke-dasharray:none;stroke-opacity:1;paint-order:markers stroke fill"
           id="rect799-1-7-2-6"
           width="24.177376"
           height="6.0443439"
           x="-185.06496"
           y="-104.05295"
           ry="3.022172" /></g></g></g></svg>
