<?xml version="1.0" encoding="UTF-8" standalone="no"?>
<svg
   version="1.1"
   width="255.94037"
   height="256.00043"
   id="svg86"
   xmlns="http://www.w3.org/2000/svg"
   xmlns:svg="http://www.w3.org/2000/svg">
  <defs
     id="defs86" />
  <path
     d="m 128.94183,2.3605996 c 0.8773,0.00363 1.75456,0.00455 2.63187,0.00505 9.81413,0.014435 19.25689,0.5194878 28.6727,3.5497814 0,0.3652721 0,0.7305443 0,1.1068855 -0.86854,0.7224752 -1.73219,1.3779684 -2.65192,2.0292897 -4.02239,2.9320658 -7.74448,6.1298128 -11.38737,9.5180588 -0.80903,0.750233 -1.6381,1.47276 -2.47463,2.192152 -1.77452,1.547057 -3.43331,3.201959 -5.09341,4.870008 -0.29941,0.297973 -0.5988,0.595944 -0.90727,0.902946 -1.59241,1.594981 -3.12673,3.21764 -4.59608,4.926667 -0.7493,0.867834 -1.53216,1.702721 -2.31402,2.541205 -2.13262,2.345233 -4.08713,4.803392 -5.99563,7.333112 -0.17795,0.232886 -0.35588,0.465748 -0.53921,0.705679 -4.03642,5.320195 -9.20169,12.304417 -9.1691,19.195196 -0.006,0.249919 -0.0117,0.499876 -0.0181,0.757384 -0.002,1.897165 0.38219,3.147716 1.2402,4.800102 2.0926,2.038946 4.21695,2.019596 7.04054,1.993257 8.82343,-0.906093 17.0457,-8.638909 22.95201,-14.656135 0.67946,-0.667048 1.386,-1.289449 2.10712,-1.91111 1.88026,-1.626663 3.61712,-3.343285 5.23248,-5.233926 1.44795,-1.661611 2.99003,-3.213429 4.55654,-4.762631 0.29322,-0.291836 0.58646,-0.58367 0.88858,-0.884345 1.24184,-1.235867 2.48589,-2.469508 3.72975,-3.703355 0.91338,-0.90668 1.82563,-1.814492 2.73784,-2.722352 0.41577,-0.411178 0.41577,-0.411178 0.83994,-0.830661 1.50767,-1.500734 2.95035,-3.034098 4.33485,-4.649494 0.76261,-0.881542 1.53979,-1.700212 2.40046,-2.487113 0.24352,0 0.48703,0 0.73792,0 0.46841,0.477056 0.46841,0.477056 1.03771,1.176065 1.208,1.420594 2.48266,2.745932 3.80492,4.058579 0.20448,0.203266 0.40896,0.406532 0.61964,0.615956 0.63827,0.633261 1.27745,1.265587 1.91697,1.897595 4.92289,4.865146 4.92289,4.865146 6.88219,7.165748 0.61944,0.725878 1.27371,1.408204 1.94983,2.081356 0.21639,0.217348 0.43282,0.434708 0.65577,0.658657 0.69995,0.659279 1.41231,1.285335 2.1417,1.911103 1.8815,1.638479 3.65369,3.384456 5.42039,5.14439 0.56965,0.566035 1.14314,1.128006 1.71672,1.690048 2.83433,2.803559 4.85529,5.049262 4.96226,9.159186 -0.0107,2.264903 -0.27246,6.291147 -1.96011,7.978802 -0.83143,0.02667 -1.66369,0.02631 -2.49545,0.016 -0.26407,-0.0027 -0.52816,-0.0053 -0.80025,-0.0078 -0.58184,-0.006 -1.16368,-0.0128 -1.74553,-0.02027 -1.27796,-0.01636 -2.55595,-0.02844 -3.83396,-0.04103 -0.68899,-0.0068 -1.37797,-0.01351 -2.06694,-0.02062 -4.42871,-0.04462 -8.85755,-0.05831 -13.28645,-0.07289 -4.31174,-0.01422 -8.62282,-0.03847 -12.93424,-0.09511 -3.42293,-0.04491 -6.8452,-0.06734 -10.26844,-0.06386 -1.8104,0.0011 -3.6192,-0.0089 -5.42926,-0.04579 -8.61445,-0.524723 -8.61445,-0.524723 -16.07031,3.011747 -1.14568,1.245723 -2.1471,2.528434 -3.01672,3.980831 0.68295,1.481838 1.66113,2.487166 2.81766,3.614674 0.20576,0.203837 0.41151,0.407672 0.6235,0.61769 0.65759,0.651034 1.31758,1.29955 1.97797,1.947746 0.86361,0.850035 1.72603,1.701249 2.58705,2.553909 0.20765,0.205615 0.4153,0.411206 0.62925,0.623041 1.29202,1.287383 2.51812,2.610005 3.69966,4.000329 1.06945,1.225804 2.23454,2.357482 3.39191,3.49955 0.35526,0.352778 0.35526,0.352778 0.71774,0.712701 0.46041,0.457108 0.92114,0.913878 1.38226,1.370276 1.17719,1.165752 2.34689,2.33876 3.51081,3.517746 5.54478,5.605654 10.81478,10.633364 19.13268,10.910314 7.78887,-0.20633 13.40033,-3.44877 18.80696,-8.9012 0.23427,-0.23587 0.46855,-0.47175 0.70992,-0.71478 0.46623,-0.47158 0.93009,-0.94553 1.39135,-1.421974 0.55779,-0.569548 1.1343,-1.120657 1.71374,-1.668164 0.24352,0 0.48702,0 0.73792,0 0.0924,-0.212977 0.18496,-0.425979 0.28024,-0.64542 0.51968,-0.942878 1.10734,-1.558662 1.87743,-2.310508 0.29209,-0.287287 0.58418,-0.574541 0.88512,-0.870513 0.31665,-0.308228 0.63334,-0.616459 0.9596,-0.934032 0.67197,-0.662628 1.34383,-1.325374 2.01559,-1.98821 1.05623,-1.038828 2.11437,-2.075635 3.17429,-3.110683 7.70071,-7.531289 13.65594,-14.636033 13.86787,-25.906865 -0.048,-8.718167 -4.75592,-14.012013 -10.67653,-19.887424 -0.52206,-0.514613 -1.04412,-1.029228 -1.56648,-1.543541 -0.90394,-0.891818 -1.80338,-1.788355 -2.70325,-2.684475 -1.69843,-1.690084 -3.40026,-3.376669 -5.1037,-5.061704 -3.06028,-3.027316 -6.11622,-6.059022 -9.16843,-9.094465 -0.89488,-0.889674 -1.79066,-1.778372 -2.68853,-2.665014 -0.99612,-0.983897 -1.9901,-1.969892 -2.98373,-2.956297 -0.2984,-0.293419 -0.59678,-0.586835 -0.90421,-0.889144 -0.40259,-0.400918 -0.40259,-0.400918 -0.81333,-0.809936 -0.23512,-0.232525 -0.47025,-0.46505 -0.71249,-0.704621 -0.49779,-0.584476 -0.49779,-0.584476 -0.49779,-1.322399 2.32555,0.701262 4.43524,1.593556 6.57213,2.744152 0.30009,0.160373 0.60015,0.320744 0.90933,0.485974 7.31413,3.951403 14.14393,8.448891 20.55962,13.742114 0.47871,0.383108 0.47871,0.383108 0.96708,0.773953 2.23569,1.798053 4.36527,3.682086 6.46549,5.633875 0.92922,0.856774 1.87378,1.689183 2.82919,2.516434 1.23698,1.095624 2.32636,2.244913 3.39126,3.506579 0.74095,0.856938 1.51096,1.681817 2.28827,2.505714 11.93723,12.69593 20.58072,28.565984 25.85228,45.104761 0.27687,0.864891 0.56035,1.727434 0.84458,2.58994 3.70667,11.346993 5.0956,22.708313 5.07438,34.626463 -0.001,1.36465 0.007,2.72901 0.016,4.09362 0.0142,5.54056 -0.36044,10.87881 -1.24019,16.34745 -0.0764,0.50279 -0.15253,1.00564 -0.22816,1.50855 -0.86349,5.5452 -2.03335,10.88712 -3.8304,16.20162 -0.12569,0.37966 -0.25149,0.75932 -0.38105,1.15048 -1.52619,4.59954 -3.08499,9.16521 -5.15124,13.55323 -0.4297,0.91782 -0.84655,1.84118 -1.2647,2.76434 -4.74297,10.33313 -11.20518,20.11032 -18.93234,28.47634 -0.67721,0.74027 -1.33162,1.49142 -1.98461,2.25268 -1.67656,1.92095 -3.47907,3.7116 -5.28508,5.50994 -0.33316,0.33461 -0.66634,0.66918 -1.00961,1.01391 -4.82923,4.82226 -4.82923,4.82226 -7.47652,6.52672 -1.12502,0.82828 -1.29279,1.04085 -1.75257,2.44438 0.0784,1.41121 0.35708,1.64002 1.17608,2.7211 0.22019,1.34079 0.17799,2.52455 -0.34592,3.78186 -1.00762,0.85494 -2.09382,1.27254 -3.32211,1.74247 -0.87944,0.36034 -0.87944,0.36034 -1.49746,1.48595 -0.21376,1.66722 0.0178,1.86852 1.10689,3.32065 -12.41926,0 -24.83851,0 -37.6341,0 2.40858,-2.81002 2.40858,-2.81002 3.57431,-3.89716 12.09674,-11.98152 18.22079,-28.78035 18.30973,-45.54371 0.004,-4.28403 -0.24658,-8.3677 -1.22218,-12.5447 -0.14773,-0.71128 -0.14773,-0.71128 -0.29834,-1.43693 -1.86641,-8.58633 -5.72807,-16.41514 -11.08328,-23.34117 -0.26446,-0.3436 -0.26446,-0.3436 -0.53425,-0.69415 -0.63349,-0.76403 -0.63349,-0.76403 -1.49765,-1.47548 -1.79709,-1.64272 -2.62872,-2.91212 -2.76534,-5.32551 -0.0185,-1.49845 0.0359,-2.98803 0.10595,-4.48459 0.0167,-0.62306 0.032,-1.24617 0.0454,-1.86931 0.0363,-1.51488 0.0934,-3.02765 0.16213,-4.5414 0.52963,-0.0231 0.52963,-0.0231 1.06995,-0.0466 0.46402,-0.0256 0.92804,-0.051 1.40613,-0.0773 0.45962,-0.0231 0.91924,-0.046 1.39279,-0.0697 2.46558,-0.33332 3.65722,-1.665 5.1707,-3.519 0.96097,-1.95225 0.8841,-4.14579 0.55344,-6.24929 -0.77996,-1.96699 -1.87963,-3.26701 -3.7588,-4.24306 -1.83282,-0.78084 -3.44243,-0.99073 -5.42345,-1.01032 -0.28626,-0.003 -0.57251,-0.006 -0.86744,-0.009 -0.60632,-0.005 -1.21264,-0.009 -1.81898,-0.0121 -0.61652,-0.004 -1.23304,-0.0117 -1.84949,-0.0228 -0.89406,-0.016 -1.78772,-0.0217 -2.68191,-0.0256 -0.27182,-0.006 -0.54367,-0.0128 -0.82374,-0.0196 -2.35141,0.01 -4.25653,0.74903 -6.02943,2.30973 -0.16455,0.20928 -0.32914,0.41854 -0.49868,0.63415 -0.25539,0.31392 -0.25539,0.31392 -0.51597,0.63416 -1.11509,1.61937 -1.29465,2.80293 -1.33865,4.78812 -0.007,0.26478 -0.0132,0.52957 -0.0199,0.80238 -0.0203,0.87438 -0.0341,1.74869 -0.0465,2.62322 -0.004,0.2998 -0.009,0.59959 -0.0132,0.90847 -0.022,1.58752 -0.038,3.17499 -0.0506,4.7626 -0.0114,1.30985 -0.0345,2.61869 -0.0681,3.92815 -0.0405,1.58556 -0.0609,3.17019 -0.0671,4.75625 -0.006,0.60185 -0.0181,1.20369 -0.0379,1.80525 -0.16003,3.48198 -0.16003,3.48198 1.33431,6.51565 1.02135,0.839 2.05484,1.53879 3.17594,2.23575 3.49355,2.99506 6.2404,6.32809 8.48613,10.33093 0.35171,0.61997 0.35171,0.61997 0.71053,1.25245 2.27936,4.27075 3.85692,8.69912 3.92454,13.57521 0.005,0.25629 0.011,0.51253 0.0164,0.77657 -0.0374,1.83389 -0.55434,2.90867 -1.69987,4.31972 -1.20599,0.60298 -2.3956,0.66412 -3.68962,0.36895 -1.92202,-2.03749 -2.08137,-3.61577 -2.0293,-6.34153 0.14201,-2.50249 0.14201,-2.50249 -1.05644,-4.55869 -0.92247,-0.50976 -1.83324,-0.90303 -2.81765,-1.27551 -1.22121,-1.22122 -0.88555,-3.05967 -0.91448,-4.7194 -0.0107,-1.56749 -0.0107,-1.56749 -0.68351,-2.92909 -1.22321,-0.931 -2.99692,-0.56262 -4.47403,-0.54362 -1.55882,-0.35061 -2.15273,-0.79392 -3.10815,-2.04461 -0.80318,-1.61897 -0.66439,-3.32744 -0.62038,-5.09826 0.16427,-2.9616 0.16427,-2.9616 -1.00167,-5.57334 -1.10658,-0.98398 -1.10658,-0.98398 -2.48041,-1.13715 -0.2359,-0.006 -0.4718,-0.0114 -0.71486,-0.0174 -1.28313,0.49575 -2.01055,1.30513 -2.60579,2.50778 -0.22759,1.4159 -0.208,2.81173 -0.1845,4.24306 0.0689,4.18989 0.0689,4.18989 -1.07229,5.59208 -1.03743,0.93743 -1.36535,1.19709 -2.73262,1.34901 -1.46275,-0.14339 -1.99206,-0.56233 -3.02088,-1.59114 -0.81766,-1.26702 -0.82637,-2.32588 -0.82584,-3.81501 -0.006,-0.45303 -0.0117,-0.90605 -0.0181,-1.3728 -0.006,-0.95217 -0.008,-1.90438 -0.006,-2.85657 0.0847,-2.70072 0.0847,-2.70072 -1.1249,-4.9745 -0.97895,-0.66134 -0.97895,-0.66134 -2.10711,-1.18615 -1.29094,-0.6592 -1.78092,-1.17543 -2.55968,-2.39826 -0.22097,-1.02185 -0.25621,-2.02389 -0.27672,-3.06699 -0.011,-0.27324 -0.0221,-0.54648 -0.0331,-0.828 -0.026,-0.66925 -0.0433,-1.33882 -0.0591,-2.00839 -0.60879,0 -1.21758,0 -1.84481,0 -0.11414,0.41093 -0.11414,0.41093 -0.23061,0.83016 -0.68009,1.36017 -1.37305,1.80375 -2.7211,2.49049 -1.31442,0.20754 -1.31442,0.20754 -2.58273,0 -1.0377,-0.87628 -1.0377,-0.87628 -1.84481,-1.84481 -0.24351,-0.24351 -0.48702,-0.48702 -0.73792,-0.73792 -0.71529,-0.0463 -0.71529,-0.0463 -1.47585,0.36897 -0.39951,0.55932 -0.39951,0.55932 -0.8071,1.12994 -0.5912,0.75776 -0.89014,1.04458 -1.82895,1.29425 -1.61514,0.0804 -2.32802,-0.0552 -3.6363,-1.06365 -1.44053,-1.93571 -1.18196,-3.94944 -1.22795,-6.281 -0.30254,-1.64991 -0.76431,-2.19804 -2.0927,-3.19671 -0.84049,-0.2726 -0.84049,-0.2726 -1.68339,-0.20753 -0.27441,-3.7e-4 -0.54886,-0.001 -0.83161,-0.001 -1.19387,0.30969 -1.55105,0.67522 -2.2815,1.68483 -0.21653,1.28078 -0.18784,2.55059 -0.17294,3.84672 -0.003,0.37669 -0.005,0.75338 -0.008,1.14149 -0.011,1.61014 -0.005,3.22011 -2.2e-4,4.83026 7.4e-4,1.17644 -0.007,2.35261 -0.0149,3.52901 0.006,0.54204 0.006,0.54204 0.0128,1.09502 -0.0167,2.26777 -0.31868,3.63231 -1.66146,5.48144 -1.37052,0.68526 -2.93538,0.58481 -4.427539,0.36896 -1.042041,-0.80811 -1.629,-1.41319 -2.213769,-2.58273 -0.08544,-1.15801 -0.145422,-2.31334 -0.190968,-3.47343 -0.06987,-1.33906 -0.136212,-2.42148 -0.915921,-3.53685 -1.115032,-0.74335 -1.445321,-0.86233 -2.721091,-0.89934 -0.276798,-0.0149 -0.553618,-0.0295 -0.838812,-0.0447 -1.330455,0.31605 -1.856607,1.00479 -2.712446,2.0509 -0.268335,1.28528 -0.268335,1.28528 -0.22197,2.69804 -0.003,0.25507 -0.006,0.51015 -0.0089,0.77296 -0.0085,0.81102 -0.005,1.62136 3.05e-4,2.43239 0.0015,0.81091 1.21e-4,1.62152 -0.0075,2.43239 -0.0064,0.73565 -0.0036,1.47135 -3.7e-4,2.20702 -0.175821,1.70606 -0.713248,2.66899 -2.018302,3.76456 -1.478525,0.62707 -2.839308,0.63184 -4.43042,0.65866 -0.592915,0.0128 -1.185769,0.0284 -1.778512,0.0476 -0.260689,0.005 -0.521395,0.009 -0.789989,0.0139 -0.826673,0.0653 -0.826673,0.0653 -1.81292,0.838 -0.163128,0.75967 -0.163128,0.75967 -0.136924,1.63439 -0.0064,0.32391 -0.0128,0.64779 -0.01955,0.98149 -0.0034,0.6822 -0.0053,1.36439 -0.0057,2.04659 -0.05312,2.50164 -0.05312,2.50164 -0.874122,3.6507 -1.068614,0.71622 -2.202416,1.16445 -3.391279,1.6488 -0.953154,0.95317 -0.830559,1.34483 -0.838811,2.66921 -0.01138,0.58072 -0.01138,0.58072 -0.02311,1.17318 -0.0096,0.81477 -0.01636,1.62957 -0.02027,2.44438 -0.05081,2.30823 -0.117866,3.78177 -1.700683,5.52001 -1.37717,0.91811 -2.060431,0.938 -3.689618,0.73793 -1.744821,-1.74482 -1.92808,-3.11169 -1.937047,-5.48831 0.005,-9.2897 5.22153,-17.80065 11.622292,-24.21312 3.892157,-3.8741 3.892157,-3.8741 5.073226,-3.8741 -0.0053,-3.60522 -0.02098,-7.21026 -0.04875,-10.81538 -0.01244,-1.67422 -0.02205,-3.34832 -0.02347,-5.02259 -0.0015,-1.61733 -0.01209,-3.23437 -0.0288,-4.85161 -0.0046,-0.61543 -0.0064,-1.23089 -0.0046,-1.84633 0.09995,-4.58604 0.09995,-4.58604 -2.108188,-8.45687 -2.377588,-2.25566 -4.556812,-2.75297 -7.722256,-2.74271 -0.525306,-0.003 -0.525306,-0.003 -1.061226,-0.006 -0.738667,-0.002 -1.477348,-0.002 -2.216011,0.001 -1.124017,0.003 -2.247333,-0.007 -3.371281,-0.0192 -0.720146,-7.4e-4 -1.440297,-3.7e-4 -2.160443,7.4e-4 -0.49939,-0.006 -0.49939,-0.006 -1.008869,-0.0124 -2.547025,0.0277 -4.517719,0.6267 -6.451079,2.32865 -0.246824,0.31392 -0.246824,0.31392 -0.498672,0.63416 -0.255392,0.31392 -0.255392,0.31392 -0.51597,0.63415 -1.317114,1.91275 -1.504935,3.53307 -1.190477,5.82268 0.850236,2.62283 2.050441,4.1698 4.42754,5.53443 0.956562,0.31886 1.601434,0.43383 2.587057,0.4857 0.279428,0.0153 0.558846,0.0309 0.846737,0.0468 0.434829,0.0217 0.434829,0.0217 0.878447,0.0439 0.294149,0.016 0.588336,0.032 0.891416,0.0483 0.72512,0.0391 1.450338,0.0763 2.175576,0.11314 0.08281,1.82398 0.142648,3.64684 0.182398,5.47227 0.01671,0.61921 0.03915,1.2383 0.06809,1.85706 0.26414,5.79749 0.26414,5.79749 -1.811388,8.08059 -0.57891,0.5293 -1.164763,1.05118 -1.759772,1.56232 -5.327443,6.18631 -8.739239,14.00971 -11.138035,21.72262 -0.08789,0.278 -0.175785,0.556 -0.266343,0.84242 -1.593787,5.3443 -2.0714,10.58278 -2.016588,16.12982 0.0015,0.30709 0.0034,0.61417 0.005,0.93055 0.02702,4.45469 0.158896,8.79375 1.240418,13.13612 0.05742,0.24726 0.114843,0.49452 0.174043,0.74928 2.649624,11.15115 8.728835,20.80389 16.260529,29.26031 0.521854,0.59615 1.025443,1.20392 1.526384,1.81769 0.667922,0.78822 1.267962,1.42196 2.078291,2.04802 0.327215,0.26634 0.654447,0.53269 0.991586,0.80711 0,0.12177 0,0.24351 0,0.36895 -6.696657,0 -13.393311,0 -20.292894,0 0.243517,-0.12177 0.487028,-0.24352 0.737922,-0.36895 0.172123,-0.78434 0.172123,-0.78434 0.230612,-1.68339 0.02773,-0.30488 0.05518,-0.60974 0.08359,-0.92385 0.02702,-0.35313 0.02702,-0.35313 0.05476,-0.71342 -0.249207,-0.16497 -0.498444,-0.33009 -0.755221,-0.50012 -3.614584,-2.44978 -3.614584,-2.44978 -4.410242,-3.92742 0,-1.12995 0,-1.12995 0.368959,-2.21378 0.49195,-0.49194 0.983902,-0.98388 1.475847,-1.47585 0.339056,-0.873 0.339056,-0.873 0,-1.8448 -1.5151,-1.9882 -3.659757,-3.4631 -5.591023,-5.01716 -1.685455,-1.42189 -3.206194,-2.99476 -4.740295,-4.57598 -1.020597,-1.02911 -2.051502,-2.04612 -3.092938,-3.05402 -2.843267,-2.76857 -5.44952,-5.58905 -7.813775,-8.77654 -0.576428,-0.77509 -1.16182,-1.54296 -1.747524,-2.31105 C 19.609199,197.90991 14.42991,189.21471 10.447555,179.69617 10.211412,179.1561 10.211412,179.1561 9.9704987,178.60514 8.9668633,176.2828 8.1035852,173.91869 7.26526,171.53289 c -0.1067776,-0.30381 -0.2135512,-0.6076 -0.3235613,-0.92061 -0.6328946,-1.8252 -1.2108399,-3.66006 -1.7559921,-5.51325 -0.2604831,-0.85936 -0.5446281,-1.7065 -0.8375504,-2.55526 -1.9399899,-5.76566 -2.8229449,-11.87333 -3.49360665,-17.89897 -0.0299597,-0.25382 -0.0599047,-0.50765 -0.0907646,-0.76916 -0.56709421,-4.84171 -0.78297004,-9.62334 -0.76245945,-14.49663 7.3792e-4,-0.35179 0.00184483,-0.70357 0.00295168,-1.06602 C 0.04535655,118.20298 1.1894,108.66784 3.8069734,98.893529 3.8997795,98.546618 3.9925822,98.199726 4.0882007,97.842312 9.8280314,76.835708 20.675245,57.351759 36.275606,42.073422 c 1.020999,-1.017498 2.037563,-2.039233 3.051141,-3.064117 4.558881,-4.601066 4.558881,-4.601066 6.910829,-6.52889 0.277758,-0.228295 0.555514,-0.456591 0.841692,-0.691803 3.706754,-3.002939 7.521621,-5.784485 11.505553,-8.402527 1.094837,-0.721737 2.158438,-1.478869 3.218329,-2.251242 1.571173,-1.108309 3.201562,-1.947867 4.933419,-2.777303 1.224436,-0.612912 2.404901,-1.273934 3.591701,-1.955425 C 87.971387,6.3117162 108.81162,2.2681759 128.94183,2.3605996 Z"
     fill="#fdfefe"
     id="path2"
     style="stroke-width:0.999998" />
  <path
     d="m 63.503467,122.73939 c 0.349863,-0.003 0.699705,-0.007 1.060156,-0.01 0.739318,-0.005 1.478653,-0.009 2.217984,-0.01 1.123281,-0.004 2.245812,-0.0224 3.368936,-0.0412 0.720626,-0.003 1.441256,-0.006 2.161885,-0.008 0.332193,-0.007 0.66436,-0.0146 1.006606,-0.0217 2.723369,0.0192 4.853123,0.83069 6.821111,2.75293 1.774929,1.9683 2.345093,3.38231 2.397643,6.07318 0.0089,0.40347 0.0089,0.40347 0.01813,0.81508 0.01813,0.88815 0.03058,1.77621 0.04117,2.66448 0.0039,0.30432 0.0078,0.60865 0.01209,0.9222 0.01956,1.61102 0.03413,3.222 0.04466,4.8331 0.01,1.33018 0.03022,2.65952 0.06055,3.9894 0.03648,1.60945 0.05469,3.21815 0.05991,4.82801 0.005,0.6114 0.016,1.2228 0.03378,1.83397 0.13063,4.77699 0.13063,4.77699 -1.218095,6.47272 -0.928192,0.7464 -1.854331,1.34479 -2.88418,1.93904 -6.252805,5.16487 -11.43279,13.68823 -12.5447,21.76875 -0.07555,1.04582 -0.101475,2.08789 -0.115306,3.13617 -0.016,0.40594 -0.016,0.40594 -0.03236,0.82007 -0.0224,1.91431 0.318289,3.03645 1.623574,4.52987 1.275422,0.33827 1.275422,0.33827 2.582734,0 0.97043,-0.80165 1.650502,-1.45619 2.213771,-2.58272 0.03022,-0.64752 0.03993,-1.29605 0.0389,-1.94426 0.0053,-0.38883 0.01102,-0.77763 0.01671,-1.17823 0.0092,-0.81955 0.01102,-1.6392 0.0057,-2.45879 0.05856,-2.91141 0.05856,-2.91141 0.776476,-3.95562 1.214687,-1.055 2.37481,-1.41882 3.958772,-1.53196 0.346806,-1.04039 0.41877,-1.71118 0.433817,-2.79028 0.01316,-0.48655 0.01316,-0.48655 0.02667,-0.98293 0.016,-0.68211 0.02738,-1.36433 0.03449,-2.04658 0.01031,-0.32437 0.02027,-0.64874 0.03093,-0.98294 0.0053,-0.29632 0.01067,-0.59262 0.01636,-0.8979 0.195554,-0.78549 0.195554,-0.78549 0.850972,-1.43477 0.87544,-0.48828 1.360957,-0.59747 2.352491,-0.6075 0.429839,-0.0121 0.429839,-0.0121 0.868359,-0.0245 0.296069,-0.003 0.592139,-0.007 0.897182,-0.01 2.788014,0.0121 2.788014,0.0121 5.188523,-1.29136 0.89339,-1.33136 0.831534,-2.56558 0.838812,-4.13785 0.0075,-0.52486 0.01529,-1.04972 0.02311,-1.57457 0.0082,-0.8226 0.01458,-1.64507 0.01671,-2.4677 0.0036,-0.79738 0.016,-1.59424 0.02951,-2.3915 0.003,-0.47558 0.006,-0.95117 0.0092,-1.44117 0.219199,-1.46732 0.630305,-2.07347 1.665551,-3.11464 1.281268,-0.64064 2.660927,-0.59104 4.058581,-0.36897 1.016743,0.80493 1.636673,1.42855 2.213771,2.58274 0.08882,1.38982 0.141332,2.77783 0.193135,4.16955 0.178416,1.38479 0.444576,2.10936 1.282718,3.20968 0.905367,0.45269 1.549581,0.44341 2.559684,0.46121 0.32295,0.01 0.64588,0.0192 0.97861,0.0288 0.89821,-0.049 0.89821,-0.049 1.51332,-0.58804 0.95707,-1.26848 1.31256,-2.25462 1.30911,-3.8459 0.001,-0.34112 0.003,-0.68224 0.004,-1.03369 -0.002,-0.54887 -0.002,-0.54887 -0.005,-1.10883 0.006,-0.77708 0.0117,-1.55416 0.0181,-2.33123 0.006,-1.22347 0.009,-2.44677 0.007,-3.67025 -0.001,-1.182 0.009,-2.36348 0.0213,-3.5454 -0.004,-0.36517 -0.007,-0.73034 -0.0114,-1.10657 0.0249,-1.7417 0.0434,-2.55057 1.13081,-3.9681 1.27131,-0.91583 1.9705,-0.9351 3.48542,-0.85178 1.17564,0.23641 1.82988,0.77467 2.64038,1.63582 0.70858,1.41716 0.5037,3.33869 0.56209,4.90748 0.17859,1.38621 0.50876,2.07358 1.28271,3.20968 0,0.24352 0,0.48703 0,0.73793 2.54693,0.34673 2.54693,0.34673 4.82101,-0.57507 0.53987,-0.64654 1.01581,-1.28728 1.45134,-2.00767 1.56173,0.28754 2.00648,0.95348 2.9517,2.21377 1.1473,0.57365 2.05241,0.47465 3.32065,0.36897 1.44122,-0.7614 2.3931,-1.38763 2.9517,-2.9517 0.60878,0 1.21757,0 1.84481,0 0.69225,1.38451 0.47938,3.0917 0.52606,4.61923 0.24472,1.48326 0.6261,2.08236 1.68771,3.12897 0.73168,0.46473 0.73168,0.46473 1.4989,0.76098 1.25447,0.52249 1.85192,1.01845 2.55967,2.19071 0.1361,1.08076 0.1361,1.08076 0.13693,2.32619 0.006,0.45136 0.0128,0.90272 0.0196,1.36775 0.003,0.94739 0.005,1.89477 0.006,2.84216 -0.007,3.31508 -0.007,3.31508 1.68268,6.0086 1.05274,0.52637 1.78377,0.48347 2.95169,0.36896 0.99617,-0.6641 1.67579,-1.13779 2.21377,-2.21377 0.0302,-0.61192 0.04,-1.22493 0.0389,-1.8376 0.005,-0.36884 0.011,-0.73768 0.0167,-1.11769 0.009,-0.77439 0.011,-1.54889 0.006,-2.32331 0.0485,-2.29203 0.30912,-3.658 1.90363,-5.34697 0.94779,-0.68 1.6983,-0.80584 2.84973,-0.69019 1.4254,0.48893 2.22554,1.53489 2.93358,2.82964 0.26695,1.42699 0.24352,2.81835 0.20754,4.26612 -0.15787,2.94107 -0.15787,2.94107 0.93106,5.57623 1.32142,1.05395 2.00875,1.10603 3.68096,1.08814 2.31259,-0.0149 2.31259,-0.0149 3.44317,0.68605 0.85799,1.34439 0.81245,2.54522 0.82295,4.11046 -0.0999,2.10235 -0.0999,2.10235 0.87629,3.82798 0.41854,0.17511 0.83708,0.35004 1.26831,0.53037 1.69355,0.74279 1.69355,0.74279 2.4213,1.68339 0.13611,0.76792 0.13611,0.76792 0.13693,1.64448 0.006,0.3194 0.0128,0.63876 0.0196,0.9678 0.003,0.66778 0.005,1.33557 0.006,2.00335 0.0455,2.11787 0.22055,3.39151 1.68267,4.97738 1.01393,0.36834 1.91074,0.2565 2.95169,0 0.89702,-0.69002 1.34328,-1.21071 1.84481,-2.21378 0.69957,-8.48468 -2.67573,-16.76297 -8.11716,-23.24458 -2.89774,-3.35786 -2.89774,-3.35786 -6.38563,-6.00776 -1.04495,-0.61172 -1.71856,-1.15279 -2.46945,-2.1094 -0.49053,-2.06533 -0.43247,-4.08944 -0.38913,-6.20173 0.001,-0.60965 0.002,-1.2193 0.001,-1.82896 0.002,-1.27526 0.0146,-2.54974 0.0363,-3.82482 0.027,-1.62825 0.0316,-3.25557 0.0284,-4.88401 -10e-4,-1.25833 0.007,-2.51645 0.0192,-3.77472 0.005,-0.59998 0.007,-1.19998 0.008,-1.79998 0.01,-3.72499 0.20245,-6.18174 2.82163,-9.05617 0.20167,-0.16455 0.40332,-0.32914 0.61109,-0.49868 0.20167,-0.17027 0.40332,-0.34055 0.61109,-0.51597 1.75864,-1.16993 3.42717,-1.30815 5.49408,-1.31442 0.4265,-0.004 0.4265,-0.004 0.86162,-0.007 0.60036,-0.004 1.20073,-0.005 1.8011,-0.005 0.90945,-0.001 1.81824,-0.0149 2.72757,-0.0292 5.65077,-0.0402 5.65077,-0.0402 8.244,1.64159 0.34241,0.22069 0.68488,0.44137 1.0377,0.66875 1.83337,1.83338 2.3835,3.19726 2.49049,5.76502 -0.0807,2.26988 -0.51157,3.70351 -2.05236,5.37301 -0.19735,0.22115 -0.39476,0.44232 -0.59811,0.67018 -1.60369,1.48643 -2.87591,1.65163 -5.04151,1.60124 -0.46424,-0.008 -0.92846,-0.0167 -1.40676,-0.0252 -0.35335,-0.0107 -0.70671,-0.0213 -1.07077,-0.0324 -0.0481,1.81115 -0.0687,3.61994 -0.0653,5.43173 -0.003,0.61405 -0.0121,1.22812 -0.0295,1.84193 -0.13941,4.26965 -0.13941,4.26965 1.83093,7.90953 0.86674,0.87786 1.77686,1.69903 2.69146,2.52697 0.82221,0.98234 1.55704,2.01215 2.28294,3.06699 0.18364,0.26439 0.3673,0.52877 0.55651,0.80117 4.35465,6.38352 7.22948,13.5116 8.82897,21.05982 0.0798,0.36503 0.15982,0.73008 0.24213,1.10616 3.51789,16.36263 -0.32867,33.26714 -9.16171,47.30548 -2.7285,4.19012 -5.90891,7.94282 -9.39015,11.52159 -0.19655,0.20679 -0.3931,0.41354 -0.5956,0.62659 -0.52495,0.54339 -1.0702,1.067 -1.61817,1.58717 -0.24352,0 -0.48703,0 -0.73792,0 0,0.24352 0,0.48704 0,0.73793 0.22545,-0.002 0.45092,-0.004 0.68322,-0.005 5.49403,-0.0489 10.98804,-0.0855 16.48223,-0.10844 2.65701,-0.0107 5.31386,-0.027 7.97078,-0.0523 2.31665,-0.022 4.63316,-0.0363 6.94991,-0.0412 1.226,-0.004 2.45163,-0.0107 3.67756,-0.0256 1.37094,-0.016 2.74126,-0.0181 4.11227,-0.0178 0.40339,-0.007 0.80678,-0.016 1.22241,-0.0242 2.67557,0.0217 4.2192,0.59436 6.12872,2.48919 1.19827,1.38552 1.25786,2.60757 1.18758,4.37567 -0.21241,2.07878 -1.13835,3.10314 -2.66343,4.47942 -1.33258,0.88838 -2.29456,0.84255 -3.83361,0.83491 -0.422,0.002 -0.422,0.002 -0.85254,0.005 -0.95043,0.004 -1.90079,0.004 -2.85123,0.002 -0.68523,0.002 -1.37047,0.004 -2.05569,0.007 -1.88903,0.005 -3.77807,0.007 -5.66712,0.007 -2.03501,0.001 -4.07002,0.007 -6.10501,0.0124 -4.45269,0.0107 -8.90537,0.0142 -13.35806,0.0178 -2.77908,0.002 -5.55815,0.005 -8.33723,0.009 -7.69088,0.009 -15.38176,0.016 -23.07265,0.0192 -0.49745,1.6e-4 -0.99491,3.2e-4 -1.49237,3.7e-4 -0.49866,1.6e-4 -0.99732,3.2e-4 -1.49598,3.6e-4 -1.00042,3.4e-4 -2.00083,7.4e-4 -3.00125,0.001 -0.24803,7e-5 -0.49609,1.6e-4 -0.75165,2.3e-4 -8.04278,0.002 -16.08551,0.0142 -24.12827,0.0316 -8.5019,0.0181 -17.003791,0.0281 -25.505718,0.0292 -4.635055,7.5e-4 -9.270046,0.005 -13.905083,0.0181 -3.946758,0.0107 -7.893435,0.016 -11.840205,0.009 -2.014263,-0.004 -4.028359,-0.002 -6.042602,0.009 -1.843822,0.009 -3.68735,0.009 -5.531168,-3.6e-4 -0.667179,-0.001 -1.33438,7.3e-4 -2.001529,0.007 -6.026021,0.0542 -6.026021,0.0542 -8.166786,-1.92836 -1.373606,-1.6737 -1.36534,-3.40522 -1.314921,-5.48941 0.165297,-1.44107 0.577746,-2.15804 1.58827,-3.19382 2.796076,-1.90381 5.716423,-1.66531 8.970382,-1.61997 0.583102,0.002 1.166214,0.005 1.749323,0.007 1.526186,0.005 3.052161,0.0199 4.578266,0.0364 1.560695,0.016 3.121423,0.0217 4.682167,0.0292 3.056046,0.016 6.111916,0.0409 9.167839,0.072 0,-0.24352 0,-0.48704 0,-0.73793 -0.308192,-0.12551 -0.308192,-0.12551 -0.622625,-0.25364 -1.103978,-0.62659 -1.818431,-1.4095 -2.698032,-2.32908 -0.216886,-0.20928 -0.433762,-0.41854 -0.657213,-0.63415 -2.052153,-1.98701 -3.856403,-4.1273 -5.615137,-6.37611 -0.243019,-0.31058 -0.486078,-0.62116 -0.736484,-0.94115 -5.725134,-7.59127 -10.137175,-16.60278 -11.808216,-25.99306 -0.06656,-0.37136 -0.133119,-0.74274 -0.20167,-1.12536 -0.582052,-3.60371 -0.699068,-7.15529 -0.69766,-10.79673 -2.71e-4,-0.30663 -7.36e-4,-0.61329 -7.36e-4,-0.92922 0.02311,-10.05939 2.441781,-19.34567 7.201522,-28.2065 0.311997,-0.58266 0.614016,-1.17064 0.915017,-1.75906 1.513079,-2.90314 3.270921,-5.69905 5.618198,-8.00086 2.537532,-2.50503 3.460043,-4.46723 3.523463,-8.04361 -0.005,-0.89611 -0.02916,-1.79036 -0.05454,-2.6861 -0.0027,-0.61805 -0.0034,-1.23612 -0.0021,-1.85417 -0.0011,-1.49676 -0.02702,-2.99116 -0.06702,-4.48736 -0.430583,0.008 -0.86116,0.0167 -1.304791,0.0252 -0.570582,0.007 -1.141172,0.0132 -1.711762,0.0196 -0.424688,0.009 -0.424688,0.009 -0.857951,0.0181 -2.284912,0.0192 -4.002828,-0.2886 -5.718592,-1.9076 -1.85969,-2.26414 -2.746642,-4.20683 -2.708121,-7.1472 0.31996,-2.47519 2.038953,-4.1346 3.872659,-5.68287 1.976613,-1.31495 3.838525,-1.31381 6.139753,-1.3274 z"
     fill="#031e2d"
     id="path3"
     style="stroke-width:0.999998" />
  <path
     d="m 177.5876,2.5947796 c 1.62899,1.5722539 3.22121,3.168549 3.40569,5.5041601 -0.005,0.3980891 -0.0107,0.7961787 -0.016,1.2063318 -0.004,0.5899997 -0.004,0.5899997 -0.007,1.1919195 -0.062,1.321632 -0.062,1.321632 -0.25137,2.060745 -0.30102,1.322238 -0.40674,2.198769 0.30179,3.392545 0.77219,0.884512 1.58573,1.69113 2.43847,2.498393 0.31486,0.312474 0.62979,0.624943 0.95422,0.946884 0.86374,0.853827 1.73504,1.69895 2.61006,2.541175 0.91809,0.888004 1.82489,1.787352 2.73276,2.685774 1.72449,1.703501 3.45736,3.39817 5.19411,5.08915 3.09815,3.016563 6.18647,6.043082 9.26479,9.079862 0.90273,0.889889 1.80765,1.777305 2.71808,2.65932 5.88054,5.701053 11.08093,10.855181 11.41249,19.511219 0.11733,9.02763 -3.04064,15.684647 -9.14253,22.245589 -0.86976,0.889821 -1.74925,1.76837 -2.6347,2.642573 -0.31849,0.317472 -0.63701,0.634927 -0.96517,0.962006 -1.0044,1.000332 -2.01136,1.998049 -3.01847,2.995685 -0.68044,0.67674 -1.36072,1.353647 -2.04082,2.030732 -1.24383,1.23784 -2.4886,2.474713 -3.73464,3.710335 -1.64788,1.634847 -3.29228,3.268835 -4.88839,4.954502 -5.7342,5.97018 -11.41323,10.12044 -20.05221,10.31219 -6.24367,-0.0527 -10.55029,-2.61996 -14.94295,-6.75661 -0.63684,-0.57011 -1.27482,-1.13894 -1.91399,-1.70644 -1.50366,-1.35283 -2.94355,-2.752325 -4.35836,-4.196948 -1.17844,-1.182872 -2.36318,-2.35929 -3.54837,-3.535402 -0.64667,-0.643258 -1.29331,-1.286537 -1.93993,-1.929844 -0.32199,-0.318896 -0.64398,-0.6378 -0.97573,-0.966363 -1.3838,-1.378591 -2.75101,-2.753216 -4.02111,-4.238016 -1.73552,-2.022989 -3.65017,-3.873921 -5.54163,-5.749174 -0.37938,-0.37752 -0.75867,-0.755132 -1.13787,-1.132827 -0.91877,-0.914754 -1.8387,-1.828341 -2.75929,-2.741271 1.53207,-3.143926 3.42515,-5.79888 6.64131,-7.379233 4.38642,-1.220407 9.35956,-0.754521 13.8603,-0.673074 1.82489,0.02667 3.64966,0.01955 5.4747,0.01636 3.44732,-0.0011 6.89369,0.02738 10.34074,0.06723 3.9279,0.04381 7.85566,0.05383 11.78376,0.06116 8.0723,0.016 16.14385,0.07356 24.21569,0.159358 0.24561,-0.811002 0.4875,-1.62314 0.72783,-2.435723 0.13511,-0.452133 0.27022,-0.90426 0.40942,-1.370095 0.73212,-2.939799 0.80881,-6.074157 -0.76829,-8.738881 -2.22171,-2.705078 -4.73978,-5.165628 -7.21782,-7.632895 -0.32983,-0.331267 -0.65968,-0.662529 -0.9995,-1.003833 -1.6776,-1.67516 -3.37745,-3.295794 -5.17601,-4.840373 -0.80295,-0.695707 -1.5609,-1.428169 -2.3106,-2.180713 -0.25159,-0.250665 -0.50319,-0.501296 -0.76243,-0.759541 -0.67992,-0.718042 -1.31903,-1.443898 -1.95863,-2.196468 -1.22431,-1.409249 -2.524,-2.72711 -3.84959,-4.039844 -0.21067,-0.20864 -0.42133,-0.417282 -0.6384,-0.632244 -0.88099,-0.870737 -1.76335,-1.740076 -2.64722,-2.607882 -0.65126,-0.640191 -1.30027,-1.282604 -1.94903,-1.925339 -0.20173,-0.196766 -0.40346,-0.393533 -0.61131,-0.596262 -0.47959,-0.47634 -0.94003,-0.971824 -1.39636,-1.470498 0,-0.243515 0,-0.487031 0,-0.737924 -1.91856,1.531269 -3.59105,3.244962 -5.24473,5.050163 -3.0126,3.257264 -6.155,6.378419 -9.3062,9.500764 -1.09983,1.089923 -2.19835,2.181133 -3.29615,3.273094 -0.24487,0.241811 -0.48973,0.483609 -0.74202,0.732739 -1.43362,1.426166 -2.79354,2.895027 -4.11192,4.428536 -1.74112,2.012371 -3.704,3.786611 -5.722,5.514119 -0.70612,0.631709 -1.34487,1.295781 -1.99326,1.986048 -4.44894,4.510604 -9.90932,7.989653 -15.70394,10.46929 -0.24113,0.118897 -0.48227,0.237794 -0.73072,0.360312 -2.61593,1.193626 -6.18143,1.327667 -8.88534,0.331483 -1.40979,-0.899864 -2.57603,-1.908764 -3.15347,-3.541168 -0.69849,-4.072154 -0.21522,-7.519285 1.70068,-11.171181 0.23605,-0.482028 0.4714,-0.964391 0.70621,-1.447022 2.75338,-5.535643 6.35689,-10.461481 10.36264,-15.156255 0.32736,-0.391377 0.65452,-0.78293 0.9815,-1.174626 3.99472,-4.755328 8.29028,-9.229854 12.67009,-13.629965 0.25144,-0.253174 0.5029,-0.50635 0.76197,-0.767198 1.4472,-1.442598 2.93527,-2.816128 4.4824,-4.15091 0.80434,-0.695939 1.58417,-1.416653 2.36546,-2.138285 2.28671,-2.061902 4.70481,-3.941236 7.14864,-5.8111477 0.33386,-0.2587352 0.66776,-0.5174686 1.01176,-0.7840438 13.7692,-10.3792138 13.7692,-10.3792138 20.38802,-6.2262292 z"
     fill="#031e2d"
     id="path4"
     style="stroke-width:0.999998" />
  <path
     d="m 191.97711,45.763305 c 2.22551,1.836284 4.2799,3.830074 6.32216,5.864561 0.57292,0.569317 1.14966,1.13457 1.72653,1.699872 0.37041,0.367999 0.74058,0.736232 1.1105,1.104725 0.33134,0.327926 0.66269,0.655812 1.0041,0.993659 2.24897,2.575601 2.87647,4.888569 2.8599,8.247679 -0.16639,1.937379 -0.51928,5.374883 -1.95435,6.809941 -0.84058,0.03584 -1.6823,0.04494 -2.52364,0.04437 -0.4005,3.7e-4 -0.4005,3.7e-4 -0.80908,0.0011 -0.90136,7.4e-4 -1.80271,-0.0015 -2.70407,-0.0034 -0.64346,-1.03e-4 -1.28691,-4.2e-5 -1.93037,1.67e-4 -1.75248,1.03e-4 -3.50499,-0.0021 -5.25747,-0.0046 -1.82936,-0.0021 -3.65873,-0.0027 -5.48809,-0.003 -3.46671,-0.0011 -6.9334,-0.0043 -10.4001,-0.0078 -3.94564,-0.0043 -7.89128,-0.006 -11.83692,-0.0082 -8.11883,-0.0039 -16.23766,-0.01031 -24.35648,-0.01849 0.29152,-0.286967 0.58304,-0.573949 0.88339,-0.86962 0.84546,-0.857566 1.49101,-1.681597 2.16838,-2.6702 2.18495,-2.859764 4.44543,-5.275438 8.13193,-5.81273 3.68888,-0.368698 7.40999,-0.217456 11.1075,-0.06891 2.266,0.08352 4.5335,0.110897 6.8007,0.143892 1.20212,0.01742 2.40213,0.0507 3.60347,0.09717 3.50082,0.112675 6.66015,-0.02169 9.41671,-2.447666 0.31057,-0.332938 0.62115,-0.665857 0.94115,-1.008878 0.31342,-0.329136 0.62685,-0.658248 0.94979,-0.997353 0.75562,-0.829413 1.48736,-1.677828 2.21953,-2.527961 1.47064,-1.688299 3.05184,-3.253756 4.64804,-4.822444 0.56101,-0.551628 1.12124,-1.10407 1.68051,-1.657447 0.36661,-0.36019 0.36661,-0.36019 0.74063,-0.727656 0.60821,-0.587411 0.60821,-0.587411 0.94565,-1.350635 z"
     fill="#6b9db2"
     id="path5"
     style="stroke-width:0.999998" />
  <path
     d="m 125.49769,190.22192 c 0.26539,0.1793 0.53079,0.35861 0.80423,0.54335 0.24255,0.16036 0.48512,0.32057 0.73504,0.4857 2.17878,1.6411 3.21509,3.98547 4.06145,6.52456 0.0387,0.50489 0.0584,1.01136 0.0653,1.51766 0.007,0.45668 0.007,0.45668 0.0142,0.92257 0.003,0.32861 0.005,0.65719 0.008,0.99573 0.003,0.34094 0.006,0.68192 0.009,1.03322 0.005,0.72325 0.009,1.44653 0.0121,2.1698 0.004,0.73423 0.0117,1.46845 0.0227,2.2026 0.13814,9.26364 0.13814,9.26364 -2.99106,12.71964 -2.70554,2.45866 -5.45503,3.29453 -9.0655,3.23562 -3.17574,-0.24537 -5.80563,-1.43423 -7.99898,-3.766 -1.27186,-2.00038 -2.24305,-4.05892 -2.29078,-6.44963 -0.007,-0.334 -0.0142,-0.66801 -0.0217,-1.01213 -0.0213,-1.53473 -0.0395,-3.06942 -0.0508,-4.60427 -0.008,-0.80584 -0.0206,-1.61165 -0.0378,-2.41735 -0.18848,-8.84118 -0.18848,-8.84118 3.0325,-12.41318 3.56328,-3.56553 9.39688,-4.21554 13.69176,-1.68789 z"
     fill="#f8fafa"
     id="path6"
     style="stroke-width:0.999998" />
  <path
     d="m 124.08815,154.97598 c 2.33996,0.83906 3.92523,2.64238 5.20437,4.72156 0.81571,2.00899 0.68404,4.56867 -0.006,6.59663 -1.13487,2.17123 -2.52083,3.61731 -4.76047,4.66247 -2.7637,0.59609 -4.82146,0.40273 -7.33599,-0.9642 -1.72421,-1.27124 -2.7632,-3.04486 -3.43308,-5.05449 -0.17155,-2.10652 -0.31484,-4.08809 0.55345,-6.04175 3.16959,-3.32807 5.06968,-4.37498 9.77748,-3.92022 z"
     fill="#f6f8f9"
     id="path7"
     style="stroke-width:0.999998" />
  <path
     d="m 121.87437,195.19281 c 1.42422,0.73687 2.40077,1.81782 2.9517,3.32066 0.0798,1.05659 0.12096,2.07642 0.12394,3.13329 0.003,0.30385 0.005,0.60773 0.007,0.92079 0.004,0.64195 0.005,1.2839 0.005,1.92587 10e-4,0.97831 0.0149,1.95601 0.0292,2.93422 0.002,0.62503 0.004,1.25005 0.004,1.87508 0.005,0.29063 0.0107,0.58124 0.016,0.88069 -0.016,1.93849 -0.39699,3.01644 -1.66199,4.56437 -1.45184,1.31987 -3.05759,1.33424 -4.94351,1.28849 -1.0631,-0.20113 -1.4211,-0.40616 -2.11288,-1.21931 -1.07624,-1.82959 -1.12472,-3.32432 -1.13571,-5.39317 -0.002,-0.30525 -0.004,-0.61052 -0.006,-0.92505 -0.003,-0.6457 -0.006,-1.2914 -0.007,-1.93712 -0.004,-0.98552 -0.0149,-1.97074 -0.0267,-2.95619 -0.002,-0.62791 -0.004,-1.25581 -0.006,-1.88372 -0.005,-0.29369 -0.009,-0.58737 -0.0139,-0.88997 0.009,-2.19154 0.52653,-3.36117 2.00274,-5.0163 1.58278,-0.90927 2.99071,-0.95635 4.77344,-0.62263 z"
     fill="#091f2f"
     id="path8"
     style="stroke-width:0.999998" />
  <path
     d="m 77.598961,94.835217 c 1.737778,0.647406 2.686886,1.397371 3.689617,2.951692 0.14855,1.026119 0.216034,1.90294 0.208994,2.927191 0.0034,0.41816 0.0034,0.41816 0.0071,0.84477 0.0027,0.58763 0.0015,1.1753 -0.0034,1.76292 -0.005,0.89515 0.0075,1.78886 0.02169,2.68389 3.52e-4,0.5729 -3.34e-4,1.1458 -0.0021,1.7187 0.005,0.26524 0.0096,0.53051 0.01493,0.80381 -0.03861,2.10884 -0.649861,2.95947 -2.091653,4.38615 -1.456989,0.84353 -2.766693,0.96701 -4.42754,0.73793 -1.240688,-0.70622 -2.364808,-1.54966 -2.821032,-2.93999 -0.09067,-0.83687 -0.1008,-1.63767 -0.07879,-2.47914 -7.36e-4,-0.30282 -0.0015,-0.60564 -0.0021,-0.91763 0.0015,-0.63759 0.0092,-1.27519 0.02311,-1.91264 0.01955,-0.97221 0.01529,-1.94224 0.0078,-2.91458 0.0043,-0.62167 0.01,-1.24334 0.01742,-1.86498 -0.0015,-0.28832 -0.003,-0.57663 -0.0043,-0.873679 0.06347,-2.116996 0.603113,-3.063542 2.120062,-4.545455 1.133432,-0.566718 2.067087,-0.452529 3.320657,-0.368959 z"
     fill="#598a9d"
     id="path9"
     style="stroke-width:0.999998" />
  <path
     d="m 144.01208,103.6903 c 1.88025,0.82072 3.23731,1.76755 4.05858,3.68962 0.17056,1.40114 0.1712,2.7869 0.16142,4.19694 0.011,0.56217 0.011,0.56217 0.0224,1.13571 -0.001,2.36614 -0.26005,3.81115 -1.65961,5.7362 -1.44869,1.31698 -2.81894,1.61262 -4.77488,1.57673 -1.29715,-0.1723 -2.0073,-0.72049 -2.97332,-1.57673 -1.586,-2.19667 -1.70333,-3.97477 -1.66032,-6.64131 -0.006,-0.35385 -0.0114,-0.70772 -0.0174,-1.0723 0.0128,-2.30161 0.32427,-3.69458 1.67762,-5.56902 1.58536,-1.4052 3.07782,-1.92849 5.16547,-1.47584 z"
     fill="#5088a1"
     id="path10"
     style="stroke-width:0.999998" />
  <path
     d="m 127.57022,124.62888 c 1.25908,1.10553 1.63408,1.77772 1.79058,3.45451 0.0299,2.38384 0.0299,2.38384 0.0295,3.57035 0.001,0.7646 0.0149,1.5284 0.0292,2.29286 0.002,0.7284 0.002,0.7284 0.004,1.47153 0.003,0.44273 0.006,0.88547 0.009,1.34163 -0.2625,1.82181 -1.0846,2.98234 -2.48526,4.14955 -1.35876,0.55586 -2.54114,0.75249 -3.96634,0.41509 -1.53515,-0.92649 -2.64026,-2.02272 -3.32066,-3.68962 -0.17817,-1.69417 -0.15363,-3.39372 -0.16142,-5.09628 -0.0121,-0.46444 -0.0242,-0.92888 -0.0368,-1.40739 -0.0221,-3.83006 -0.0221,-3.83006 1.03842,-5.39967 2.07441,-2.08631 4.41626,-2.45323 7.06936,-1.10256 z"
     fill="#5d8fa5"
     id="path11"
     style="stroke-width:0.999998" />
  <path
     d="m 110.43656,115.49708 c 1.61391,0.94729 2.27519,1.96434 2.95169,3.68961 0.17831,1.40119 0.18809,2.78585 0.1845,4.19694 0.0103,0.37003 0.021,0.74006 0.0316,1.1213 0.006,2.43459 -0.33336,4.3097 -2.06099,6.11958 -1.75001,1.03739 -3.55138,1.02669 -5.53443,0.73792 -1.37915,-1.00562 -2.16383,-2.18948 -2.95169,-3.68962 -0.22084,-1.46224 -0.17117,-2.92724 -0.16142,-4.40448 -0.007,-0.39547 -0.0149,-0.79094 -0.0224,-1.1984 0.001,-2.30378 0.0896,-3.73218 1.6596,-5.46597 1.75554,-1.63594 3.65806,-1.76107 5.90339,-1.10688 z"
     fill="#51859c"
     id="path12"
     style="stroke-width:0.999998" />
  <path
     d="m 149.87223,207.52709 c 1.34956,0.36353 2.03639,1.04876 2.99493,2.05524 0.55672,1.11343 0.55354,1.70578 0.36896,2.95169 -0.74796,1.0942 -1.64913,2.01442 -2.58273,2.95168 -0.21639,0.21735 -0.43281,0.43472 -0.65577,0.65866 -0.42591,0.42396 -0.8535,0.84625 -1.28272,1.26687 -0.67221,0.68574 -1.29154,1.40081 -1.91255,2.13305 -3.36449,3.83658 -3.36449,3.83658 -5.12655,4.27044 -1.49746,0.072 -2.28019,-0.0994 -3.56711,-0.90365 -1.07066,-1.13758 -1.32576,-2.02994 -1.3029,-3.61036 0.67824,-2.98725 4.21589,-5.93887 6.46837,-7.87358 0.24351,0 0.48702,0 0.73792,0 0.12174,-0.36527 0.24352,-0.73055 0.36896,-1.10689 1.55126,-1.84805 3.0171,-2.99006 5.49119,-2.79315 z"
     fill="#709fb2"
     id="path13"
     style="stroke-width:0.999998" />
  <path
     d="m 92.357432,184.12397 c 1.07793,0.67683 2.004441,1.42614 2.582728,2.58272 0.224248,1.07636 0.292443,1.54873 0,2.58273 -0.980114,1.35134 -2.15197,2.50143 -3.320652,3.68961 -0.571795,0.63534 -1.140704,1.27327 -1.706448,1.914 -4.159993,4.61897 -4.159993,4.61897 -5.749173,4.84117 -2.491659,0.1232 -2.491659,0.1232 -3.528199,-0.5174 -0.897357,-0.97235 -1.191967,-1.81053 -1.39946,-3.10158 0.49736,-3.09469 3.220996,-5.15333 5.349946,-7.26394 0.329844,-0.33269 0.659677,-0.66539 0.999513,-1.00816 0.320317,-0.31939 0.640651,-0.63875 0.970689,-0.96779 0.290094,-0.28928 0.580187,-0.57854 0.87907,-0.87657 1.56044,-1.38786 2.792151,-2.22252 4.921986,-1.87479 z"
     fill="#6e9fb4"
     id="path14"
     style="stroke-width:0.999998" />
  <path
     d="m 145.60323,134.36601 c 1.55721,1.08775 2.64592,2.15358 3.20535,4.00669 0.19011,2.11315 0.23267,3.97497 -0.73792,5.90339 -1.66343,1.85616 -3.36749,2.77502 -5.81115,3.18229 -1.8509,-0.0387 -2.89121,-1.15121 -4.19406,-2.35645 -1.47357,-1.75178 -1.61884,-3.48003 -1.57097,-5.70017 0.25732,-1.91381 1.12926,-3.2157 2.55102,-4.48952 1.95792,-1.33156 4.41894,-1.60118 6.55773,-0.54623 z"
     fill="#6496aa"
     id="path15"
     style="stroke-width:0.999998" />
  <path
     d="m 121.48235,95.342539 c 0.30012,-0.0046 0.60023,-0.0096 0.90944,-0.01458 1.34395,0.34357 2.29137,1.03984 3.1722,2.08982 0.27474,1.263984 0.27474,1.263984 0.26809,2.698041 3.7e-4,0.25507 7.4e-4,0.51015 10e-4,0.77296 -0.002,0.53712 -0.009,1.07425 -0.021,1.61124 -0.0174,0.81905 -0.0153,1.63634 -0.0103,2.45554 -0.0345,4.39806 -0.0345,4.39806 -1.71366,6.11381 -1.20492,0.84344 -2.24176,0.85858 -3.68962,0.73793 -1.28576,-0.44084 -1.89309,-1.0515 -2.58273,-2.21378 -0.11655,-0.94472 -0.17266,-1.79803 -0.17294,-2.74271 -0.003,-0.26378 -0.006,-0.52758 -0.009,-0.79936 -0.004,-0.55664 -0.005,-1.11331 -0.003,-1.66996 3.6e-4,-0.84898 -0.0149,-1.69673 -0.0313,-2.54553 -0.002,-0.54215 -0.003,-1.08431 -0.003,-1.62646 -0.006,-0.252201 -0.0121,-0.504361 -0.0185,-0.764181 0.0203,-1.420149 0.20913,-1.992756 1.11666,-3.109111 1.04439,-0.825542 1.47752,-1.014528 2.78731,-0.993834 z"
     fill="#3f728b"
     id="path16"
     style="stroke-width:0.999998" />
  <path
     d="m 181.64618,79.707785 c 1.65129,0.89026 3.09096,2.069217 4.05858,3.689618 0.3192,1.893083 0.46236,3.927014 -0.45832,5.658376 -1.13543,1.338781 -2.23281,2.392267 -4.03553,2.58273 -0.44992,0.0046 -0.89985,0.0096 -1.36342,0.01458 -0.44803,0.01031 -0.89607,0.02098 -1.35766,0.03165 -1.49645,-0.200212 -2.06177,-0.586066 -3.116,-1.645919 -1.13227,-1.544297 -1.75366,-3.237721 -1.64015,-5.1597 0.42901,-1.941812 1.55585,-3.523897 3.20823,-4.617784 1.5434,-0.743247 3.0307,-0.938111 4.70427,-0.553444 z"
     fill="#6f9caf"
     id="path17"
     style="stroke-width:0.999998" />
  <path
     d="m 93.833277,80.814669 c 1.569081,0.786437 1.569081,0.786437 2.213771,1.84481 0.275517,1.593857 0.287499,3.15209 0.248068,4.766953 -0.01742,0.765653 -0.01529,1.529404 -0.01031,2.295203 -0.04448,4.123926 -0.04448,4.123926 -1.713654,5.851503 -1.205175,0.843623 -2.241335,0.940685 -3.689616,0.737924 -1.079153,-0.673533 -2.005047,-1.427364 -2.582734,-2.582734 -0.103679,-1.559709 -0.115697,-3.120761 -0.129172,-4.683454 -0.006,-0.519275 -0.016,-1.038519 -0.03022,-1.557635 -0.02027,-0.750909 -0.02844,-1.501092 -0.03378,-2.252233 -0.0075,-0.449373 -0.01458,-0.898737 -0.02204,-1.361722 0.274558,-1.547879 0.863029,-2.076766 2.060097,-3.058615 1.193187,-0.596591 2.457277,-0.403694 3.689617,0 z"
     fill="#45778f"
     id="path18"
     style="stroke-width:0.999998" />
  <path
     d="m 158.03262,189.65838 c 1.68155,0.78382 2.96804,1.74362 4.08164,3.22842 0.6281,2.17739 0.75,4.08056 -0.27672,6.13399 -1.34232,1.5237 -2.54072,2.74312 -4.61202,2.90558 -2.01449,-0.13209 -3.42104,-0.61541 -4.84263,-2.07542 -1.28955,-2.00598 -1.69992,-3.76253 -1.36054,-6.13398 1.45327,-2.85271 3.74351,-4.64194 7.01027,-4.05859 z"
     fill="#6f9eb1"
     id="path19"
     style="stroke-width:0.999998" />
  <path
     d="m 92.753776,102.81978 c 1.369338,0.25554 2.219913,0.87632 3.149238,1.88246 1.016387,1.65014 0.685743,3.69925 0.674418,5.58325 0.01102,0.6485 0.01102,0.6485 0.0224,1.3101 -0.0015,2.37787 -0.01529,3.96029 -1.659604,5.74629 -1.260194,0.95601 -2.521212,0.92347 -4.058579,0.73793 -1.163195,-0.56947 -1.561319,-0.77196 -2.213771,-1.84481 -0.285614,-1.6463 -0.302823,-3.26052 -0.268334,-4.92459 0.01458,-0.79254 0.0075,-1.5828 -0.0018,-2.37538 0.003,-0.50685 0.0068,-1.01369 0.01209,-1.52053 0.0043,-0.45777 0.0089,-0.91555 0.01351,-1.3872 0.485904,-2.44407 2.004467,-3.36522 4.330517,-3.20752 z"
     fill="#3f6f87"
     id="path20"
     style="stroke-width:0.999998" />
  <path
     d="m 106.56246,69.146255 c 0.50796,-0.0071 0.50796,-0.0071 1.02618,-0.01458 1.50351,0.367235 1.97421,0.798723 2.84792,2.089822 0.26311,1.534696 0.24053,3.035724 0.20753,4.588964 0.004,0.413069 0.008,0.826142 0.0121,1.251732 -0.0206,2.326333 -0.0925,3.854335 -1.69564,5.597121 -1.39052,0.927012 -2.04091,0.933529 -3.68961,0.737923 -1.28281,-0.742833 -2.10497,-1.518414 -2.58274,-2.951698 -0.1147,-1.520072 -0.1195,-3.042013 -0.13834,-4.5659 -0.0139,-0.41949 -0.0277,-0.838984 -0.0418,-1.271187 -0.0324,-3.069978 -0.0324,-3.069978 0.98437,-4.586079 1.13666,-0.705298 1.74205,-0.894936 3.06988,-0.876284 z"
     fill="#44768e"
     id="path21"
     style="stroke-width:0.999998" />
  <path
     d="m 107.04672,89.547244 c 1.48118,0.224816 2.35774,0.935211 3.38984,1.967315 0.18005,1.560851 0.13667,3.134223 0.13834,4.704262 0.009,0.435663 0.0181,0.871327 0.0274,1.32019 0.0139,4.073189 0.0139,4.073189 -1.64159,5.782329 -1.34452,0.44817 -2.67345,0.7089 -4.05858,0.36896 -1.17243,-0.95571 -1.77778,-1.50854 -2.07766,-3.01304 2.7e-4,-0.42921 3.7e-4,-0.858427 7.4e-4,-1.300647 -7.4e-4,-0.470142 -0.001,-0.940288 -0.002,-1.424677 0.005,-0.242879 0.009,-0.485785 0.0139,-0.736036 0.0128,-0.742919 0.007,-1.484228 3.7e-4,-2.227189 0.0274,-3.602037 0.0274,-3.602037 0.92042,-4.720838 1.12779,-0.870129 1.91254,-0.781745 3.28879,-0.720629 z"
     fill="#40748d"
     id="path22"
     style="stroke-width:0.999998" />
  <path
     d="m 103.05733,166.78276 c 1.60806,0.83381 2.6667,1.61312 3.32065,3.32065 0.2618,1.70558 0.39817,3.31135 -0.43237,4.87001 -1.01891,1.25262 -2.01655,2.15589 -3.62621,2.50923 -1.85794,0.1659 -2.952646,0.0575 -4.427542,-1.10689 -1.172514,-1.04223 -1.733888,-1.62544 -2.024968,-3.16932 -0.100337,-2.08958 0.119003,-3.57277 1.504675,-5.17844 1.813404,-1.76819 3.295045,-1.86506 5.685765,-1.24524 z"
     fill="#f6f9f9"
     id="path23"
     style="stroke-width:0.999998" />
  <path
     d="m 143.32027,175.63784 c 1.43114,0.99557 2.21664,2.09387 2.90558,3.68961 0.2662,1.92998 -0.0548,3.16387 -1.10689,4.79652 -1.70088,1.5733 -3.13096,2.01755 -5.40327,1.99901 -1.51706,-0.26918 -2.4902,-1.20659 -3.45181,-2.36799 -0.85466,-1.43776 -0.98032,-2.78599 -0.73792,-4.42754 0.61665,-1.82779 1.65088,-2.96297 3.37254,-3.81644 1.58105,-0.55802 2.85805,-0.37356 4.42177,0.12682 z"
     fill="#f6f8f8"
     id="path24"
     style="stroke-width:0.999998" />
  <path
     d="m 197.51152,52.035655 c 1.5801,0.171412 2.45051,1.174114 3.50515,2.259888 0.18044,0.184176 0.36087,0.368367 0.54677,0.558126 2.15385,2.247561 2.87434,3.604155 3.32732,6.77499 -5.23556,0 -10.47113,0 -15.86535,0 0.64188,-1.283746 1.0486,-1.87211 2.0365,-2.833513 0.25563,-0.251587 0.51127,-0.503201 0.77467,-0.762426 0.4006,-0.388812 0.4006,-0.388812 0.80927,-0.785483 1.71631,-1.67437 3.3692,-3.33585 4.86567,-5.211582 z"
     fill="#f6f9fa"
     id="path25"
     style="stroke-width:0.999998" />
  <path
     d="m 75.38519,204.41685 c 1.524178,0.64354 2.496342,1.51679 3.320658,2.9517 0.309402,1.84075 0.233065,3.49864 -0.645686,5.16547 -0.815932,1.08791 -1.090361,1.38273 -2.306011,1.84481 -1.852578,0.23744 -3.504392,0.30019 -5.165463,-0.59957 -1.355223,-1.60932 -2.118963,-3.10702 -2.05235,-5.2678 0.418185,-1.55948 1.620733,-2.66459 2.790273,-3.72565 1.273474,-0.63672 2.6635,-0.50216 4.058579,-0.36896 z"
     fill="#f7f9fa"
     id="path26"
     style="stroke-width:0.999998" />
  <path
     d="m 122.88614,77.916301 c 1.63964,0.621245 2.60961,1.737628 3.41578,3.267331 0.4202,1.873631 0.21969,3.242116 -0.62263,4.95792 -1.34097,1.485945 -2.33493,2.109292 -4.3353,2.236832 -1.24472,-0.04149 -1.97367,-0.237971 -2.95169,-1.014643 -1.51209,-1.622728 -1.85601,-2.800903 -1.79869,-4.982429 0.24921,-1.791146 1.29354,-2.772565 2.58273,-3.941835 1.39109,-0.656174 2.20908,-0.780076 3.7098,-0.523176 z"
     fill="#558ca1"
     id="path27"
     style="stroke-width:0.999998" />
  <path
     d="m 97.522894,214.00985 c 1.458567,0.77057 2.449755,1.55578 3.320666,2.9517 0.33212,1.68119 0.38769,3.35999 -0.45833,4.88442 -1.082548,1.30069 -1.881616,1.9951 -3.618992,2.22674 -1.539658,0.0692 -2.599032,0.0592 -3.832303,-0.93105 -1.462095,-1.56907 -1.909624,-2.80384 -1.877959,-4.9291 0.363278,-1.64685 1.545964,-2.74169 2.777301,-3.83373 1.186036,-0.59303 2.403169,-0.54386 3.689617,-0.36898 z"
     fill="#f6f8f9"
     id="path28"
     style="stroke-width:0.999998" />
  <path
     d="m 94.571201,135.78997 c 1.688466,1.16317 1.688466,1.16317 2.213771,2.21377 0.187055,1.90176 0.187055,1.90176 0,2.9517 -0.899345,1.08382 -0.899345,1.08382 -1.844812,1.8448 -0.121741,0.12178 -0.243516,0.24352 -0.368959,0.36897 -1.135135,0.18527 -2.186848,0.19633 -3.320657,0 -1.228578,-0.97786 -1.697579,-1.52023 -2.019198,-3.03529 -0.104995,-1.60989 0.02098,-2.30001 1.027614,-3.60602 1.552702,-1.1555 2.470236,-1.21685 4.312241,-0.73793 z"
     fill="#5d8ea2"
     id="path29"
     style="stroke-width:0.999998" />
  <path
     d="m 122.10498,158.96538 c 1.52118,0.53523 2.17258,0.94845 3.09005,2.28295 0.35566,1.72212 0.24334,2.93131 -0.6918,4.42754 -1.0064,0.94719 -1.35293,1.08775 -2.74416,1.24525 -1.36055,-0.13835 -1.36055,-0.13835 -2.42131,-0.99158 -0.90625,-1.14614 -1.12061,-1.8839 -1.33749,-3.32066 0.19531,-1.4404 0.31605,-1.69376 1.31443,-2.65192 1.06109,-0.79956 1.40728,-0.92005 2.79028,-0.99158 z"
     fill="#0a1f31"
     id="path30"
     style="stroke-width:0.999998" />
  <path
     d="m 159.13951,77.862975 c 0.71486,0.415083 0.71486,0.415083 1.10689,1.106884 -0.145,2.323081 -1.16457,3.303515 -2.79604,4.844062 -1.25085,0.966379 -1.90673,1.184891 -3.47631,1.059327 -0.71487,-0.415081 -0.71487,-0.415081 -1.10689,-1.106886 -0.14268,-0.831605 -0.14268,-0.831605 0,-1.844806 0.61092,-0.8055 1.17436,-1.449377 1.89093,-2.144591 0.17504,-0.185242 0.35004,-0.370506 0.53038,-0.561374 1.26682,-1.258256 2.08259,-1.605967 3.85104,-1.352616 z"
     fill="#f2f5f7"
     id="path31"
     style="stroke-width:0.999998" />
  <path
     d="m 135.157,92.252483 c 0.99616,0.664111 1.67578,1.137795 2.21377,2.213769 0.19548,1.466102 0.11765,2.044677 -0.73793,3.274538 -1.05016,0.743862 -1.38984,0.939972 -2.60579,1.037703 -1.45278,-0.253649 -1.45278,-0.253649 -2.39825,-1.199124 -0.63894,-1.527912 -0.62962,-2.270863 -0.16142,-3.851041 1.04049,-1.502935 1.89901,-1.768191 3.68962,-1.475845 z"
     fill="#55859a"
     id="path32"
     style="stroke-width:0.999998" />
  <path
     d="m 164.99678,84.527347 c 1.153,0.345916 1.153,0.345916 1.52196,0.714862 0.20754,1.129948 0.20754,1.129948 0,2.582734 -1.01695,1.30884 -2.1944,2.573048 -3.68961,3.320655 -1.29137,0.06919 -1.29137,0.06919 -2.58273,0 -0.73793,-0.737921 -0.73793,-0.737921 -0.87629,-1.591147 0.1883,-1.349527 0.67588,-1.849945 1.61421,-2.836396 0.19214,-0.204975 0.38429,-0.409976 0.58227,-0.621178 1.21459,-1.184503 1.67046,-1.597914 3.43019,-1.56953 z"
     fill="#f0f4f4"
     id="path33"
     style="stroke-width:0.999998" />
  <path
     d="m 150.88975,71.437851 c 0.87053,0.152781 0.87053,0.152781 1.97741,0.890698 0.2192,1.386859 0.11616,2.029132 -0.6356,3.224092 -2.61939,2.88177 -2.61939,2.88177 -4.11478,3.16356 -1.15301,-0.115306 -1.15301,-0.115306 -1.89093,-0.507323 -0.56307,-1.090952 -0.31282,-1.758485 0,-2.928637 0.77827,-1.023292 0.77827,-1.023292 1.75257,-1.98317 0.31772,-0.322449 0.63542,-0.644932 0.96275,-0.977169 0.9743,-0.729277 0.9743,-0.729277 1.94858,-0.882051 z"
     fill="#eef2f4"
     id="path34"
     style="stroke-width:0.999998" />
  <path
     d="m 129.24928,229.34196 c 1.32478,0.29326 1.85737,0.9028 2.58706,2.0091 0.0245,1.42129 -0.0471,2.21321 -0.99158,3.2976 -1.14339,0.52534 -1.82058,0.59551 -3.067,0.39201 -1.24338,-0.91901 -1.77769,-1.43373 -2.02929,-2.97475 0.37796,-2.22052 1.17694,-2.85283 3.50081,-2.72396 z"
     fill="#ecf0f1"
     id="path35"
     style="stroke-width:0.999998" />
  <path
     d="m 115.97098,230.61313 c 0.89935,0.57651 0.89935,0.57651 1.47585,1.47585 0.20754,1.29137 0.20754,1.29137 0,2.58273 -0.76098,0.92242 -0.76098,0.92242 -1.8448,1.47585 -1.40311,0 -2.2209,-0.075 -3.32066,-0.96853 -0.53734,-1.27616 -0.33689,-2.13554 0,-3.45901 0.85919,-1.47971 2.11654,-1.30006 3.68961,-1.10689 z"
     fill="#729aae"
     id="path36"
     style="stroke-width:0.999998" />
  <path
     d="m 157.66366,177.11369 c 0.71487,0.39202 0.71487,0.39202 1.10689,1.10689 0.1846,1.45035 0.22122,2.25088 -0.59956,3.48207 -1.14823,0.75541 -1.74111,0.82944 -3.09006,0.5765 -0.89934,-0.78403 -0.89934,-0.78403 -1.47585,-1.84481 0.0235,-1.1748 0.18066,-1.8999 0.78405,-2.90557 1.10669,-0.66402 2.0178,-0.54973 3.27453,-0.41508 z"
     fill="#eef2f4"
     id="path37"
     style="stroke-width:0.999998" />
  <path
     d="m 84.24027,174.53095 c 0.876287,0.57651 0.876287,0.57651 1.475848,1.47585 0.15687,1.27746 0.235767,2.15278 -0.392021,3.29759 -1.128011,0.61859 -2.039667,0.52681 -3.297596,0.39202 -0.714862,-0.36896 -0.714862,-0.36896 -1.106883,-1.10687 -0.196549,-1.32877 -0.25358,-2.50092 0.415082,-3.68962 1.040544,-0.55496 1.745593,-0.53468 2.90557,-0.36897 z"
     fill="#f4f7f8"
     id="path38"
     style="stroke-width:0.999998" />
  <path
     d="m 157.8712,222.49598 c 1.26831,0.36896 1.26831,0.36896 2.00623,0.99158 0.50242,1.16184 0.33984,1.86452 0,3.067 -0.73792,0.73792 -0.73792,0.73792 -2.19071,0.87628 -1.08609,-0.0295 -1.38397,-0.0414 -2.23683,-0.76099 -0.44224,-1.02269 -0.56177,-1.59624 -0.36896,-2.69802 0.85338,-1.29713 1.22072,-1.47585 2.79027,-1.47585 z"
     fill="#eff3f4"
     id="path39"
     style="stroke-width:0.999998" />
  <path
     d="m 143.64312,197.40658 c 0.71486,0.41509 0.71486,0.41509 1.10688,1.10689 0.1995,1.33945 0.17113,1.96366 -0.59956,3.09005 -1.13224,0.77468 -1.74479,0.82855 -3.09006,0.59957 -0.95862,-0.8308 -1.09108,-1.34678 -1.24524,-2.60579 0.13835,-1.08383 0.13835,-1.08383 0.53038,-1.77563 1.12328,-0.65223 2.02951,-0.55095 3.2976,-0.41509 z"
     fill="#f2f5f6"
     id="path40"
     style="stroke-width:0.999998" />
  <path
     d="m 94.202238,125.45904 c 0.691805,0.4612 0.691805,0.4612 1.106887,1.10689 0.161421,0.89934 0.161421,0.89934 0,1.84481 -0.599564,0.85322 -0.599564,0.85322 -1.475848,1.47584 -1.153005,0.16142 -1.153005,0.16142 -2.213769,0 -0.908841,-1.36326 -0.881791,-2.07833 -0.737923,-3.68961 0.828355,-1.47263 1.837716,-1.17045 3.320653,-0.73793 z"
     fill="#5d8294"
     id="path41"
     style="stroke-width:0.999998" />
  <path
     d="m 104.90214,229.1373 c 0.6918,0.41507 0.6918,0.41507 1.10688,1.10687 0.14382,1.15047 0.18602,1.88546 -0.39202,2.90558 -1.12004,0.65034 -2.035,0.55282 -3.2976,0.41507 -0.85334,-1.28 -0.89465,-1.81604 -0.73792,-3.32065 0.81508,-1.35846 1.838,-1.2922 3.32066,-1.10687 z"
     fill="#7b9ba9"
     id="path42"
     style="stroke-width:0.999998" />
  <path
     d="m 164.67394,210.32024 c 0.6918,0.41509 0.6918,0.41509 1.10688,1.10689 0.14524,1.16195 0.19502,1.88875 -0.41508,2.90556 -1.01683,0.6101 -1.74362,0.56034 -2.90557,0.41509 -0.69181,-0.41509 -0.69181,-0.41509 -1.10689,-1.10689 -0.14524,-1.16194 -0.19502,-1.88875 0.41508,-2.90556 1.01683,-0.61011 1.74362,-0.56033 2.90558,-0.41509 z"
     fill="#edf0f1"
     id="path43"
     style="stroke-width:0.999998" />
  <path
     d="m 129.25361,178.58954 c 0.79512,1.19268 0.9108,1.56864 0.73792,2.95169 -0.41508,0.66874 -0.41508,0.66874 -1.10688,1.10689 -1.16195,0.14524 -1.88875,0.19502 -2.90557,-0.41509 -0.6101,-1.01683 -0.56033,-1.74363 -0.41509,-2.90558 0.86496,-1.57728 2.1397,-1.13244 3.68962,-0.73791 z"
     fill="#799baa"
     id="path44"
     style="stroke-width:0.999998" />
  <path
     d="m 118.18476,177.8516 c 0.73792,1.10689 0.73792,1.10689 0.64568,2.44438 -0.0913,0.41093 -0.18265,0.82186 -0.27673,1.24525 -1.03261,0.5163 -1.80975,0.46218 -2.95169,0.36896 -0.69181,-0.41507 -0.69181,-0.41507 -1.10689,-1.10689 -0.16142,-1.10689 -0.16142,-1.10689 0,-2.21376 1.11996,-1.33534 2.09312,-1.22382 3.68962,-0.73794 z"
     fill="#ecf0f2"
     id="path45"
     style="stroke-width:0.999998" />
  <path
     d="m 81.081038,219.42898 c 0.945463,0.11538 0.945463,0.11538 1.614207,0.50734 0.676832,1.10429 0.552919,2.03506 0.438143,3.29759 -0.737924,0.73792 -0.737924,0.73792 -1.821749,0.85322 -1.129944,-0.11538 -1.129944,-0.11538 -1.84481,-0.50732 -0.631482,-1.15153 -0.315625,-2.05986 -0.02311,-3.29759 0.737924,-0.73794 0.737924,-0.73794 1.637266,-0.85324 z"
     fill="#ecf1f2"
     id="path46"
     style="stroke-width:0.999998" />
  <path
     d="m 95.493607,202.27226 c 1.016075,0.33024 1.464354,0.4965 2.029287,1.40668 -0.04612,1.12995 -0.04612,1.12995 -0.368959,2.21376 -1.106887,0.73792 -1.106887,0.73792 -2.029292,0.66874 -1.016075,-0.33023 -1.464356,-0.49649 -2.029289,-1.40667 0.04612,-1.12993 0.04612,-1.12993 0.368961,-2.21376 1.106886,-0.73792 1.106886,-0.73792 2.029292,-0.66875 z"
     fill="#e8edee"
     id="path47"
     style="stroke-width:0.999998" />
  <path
     d="m 171.86869,93.774451 c 1.00459,0.351606 1.46659,0.523141 2.02929,1.429725 -0.0824,1.345732 -0.14158,1.986391 -1.10689,2.951696 -1.03672,0.132906 -1.61694,0.141439 -2.51355,-0.415082 -0.6418,-1.013375 -0.58487,-1.731712 -0.43814,-2.905573 0.60876,-0.993243 0.86017,-1.119226 2.02929,-1.060766 z"
     fill="#7090a3"
     id="path48"
     style="stroke-width:0.999998" />
  <path
     d="m 142.53623,231.97369 c 0.36527,0.038 0.73054,0.0761 1.10689,0.11538 0.73792,1.10689 0.73792,1.10689 0.62262,2.07541 -0.25365,0.87628 -0.25365,0.87628 -0.62262,1.24524 -1.08383,0.0692 -1.08383,0.0692 -2.21377,0 -0.73793,-0.73792 -0.73793,-0.73792 -0.83017,-1.66033 0.14141,-1.41398 0.55312,-1.63147 1.93705,-1.77563 z"
     fill="#789ab0"
     id="path49"
     style="stroke-width:0.999998" />
  <path
     d="m 161.72224,122.87631 c 4.38327,0 8.76653,0 13.28262,0 0.18265,0.36527 0.18265,0.36527 0.36897,0.73792 -1.76621,0.0619 -3.53249,0.1211 -5.29887,0.17792 -0.60091,0.0196 -1.2018,0.0401 -1.80266,0.0613 -0.86359,0.0302 -1.72723,0.058 -2.59092,0.0851 -0.40304,0.0149 -0.40304,0.0149 -0.81421,0.0302 -1.16377,0.0345 -2.02993,0.0171 -3.14493,-0.35452 0,-0.24351 0,-0.48703 0,-0.73792 z"
     fill="#21313c"
     id="path50"
     style="stroke-width:0.999998" />
  <path
     d="m 170.57732,29.528987 c 0.12174,0.243513 0.24352,0.48703 0.36897,0.737924 -2.12909,2.537406 -4.45313,4.865279 -6.80274,7.194752 -0.37938,0.377524 -0.75866,0.755132 -1.13787,1.132827 -0.91877,0.914758 -1.8387,1.828338 -2.75928,2.741272 -0.24352,-0.121742 -0.48704,-0.243519 -0.73793,-0.368961 0.26976,-0.267837 0.53953,-0.535664 0.81747,-0.811607 1.00833,-1.001619 2.01541,-2.004485 3.02213,-3.007723 0.43444,-0.432596 0.86922,-0.864857 1.30434,-1.296773 0.62829,-0.623773 1.25535,-1.248766 1.88219,-1.873993 0.19224,-0.190337 0.38449,-0.380677 0.58255,-0.576784 1.23352,-1.233328 2.3608,-2.516364 3.46017,-3.870934 z"
     fill="#dde3e8"
     id="path51"
     style="stroke-width:0.999998" />
  <path
     d="m 100.84356,194.08592 c 0.36896,0.36896 0.36896,0.36896 0.41508,1.29137 -0.0461,0.92241 -0.0461,0.92241 -0.41508,1.29137 -0.899352,0.0692 -0.899352,0.0692 -1.844819,0 -0.243518,-0.24352 -0.487028,-0.48704 -0.737924,-0.73793 0.09223,-0.94545 0.09223,-0.94545 0.368965,-1.84481 0.923328,-0.46166 1.255571,-0.30908 2.213778,0 z"
     fill="#84a6b7"
     id="path53"
     style="stroke-width:0.999998" />
  <path
     d="m 166.14978,76.756089 c 0.96853,0.138345 0.96853,0.138345 1.84481,0.368962 0.23061,0.876284 0.23061,0.876284 0.36896,1.844808 -0.24351,0.243517 -0.48702,0.487032 -0.73792,0.737926 -0.96852,-0.138381 -0.96852,-0.138381 -1.84481,-0.368963 -0.23061,-0.876283 -0.23061,-0.876283 -0.36896,-1.84481 0.24352,-0.243518 0.48703,-0.487027 0.73792,-0.737923 z"
     fill="#5f8591"
     id="path55"
     style="stroke-width:0.999998" />
  <path
     d="m 105.08661,185.18472 c 0.92241,0.0461 0.92241,0.0461 1.29137,0.41509 0.0692,0.89934 0.0692,0.89934 0,1.84481 -0.24352,0.24352 -0.48703,0.48702 -0.73792,0.73791 -1.30454,-0.19765 -1.30454,-0.19765 -1.84481,-0.73791 -0.0461,-0.92241 -0.0461,-0.92241 0,-1.84481 0.36896,-0.36897 0.36896,-0.36897 1.29136,-0.41509 z"
     fill="#80a8b7"
     id="path56"
     style="stroke-width:0.999998" />
  <path
     d="m 189.39437,75.649206 c 1.36232,0.255427 1.36232,0.255427 1.84481,0.737923 0.0142,0.614753 0.016,1.230075 0,1.844807 -0.87628,0.23061 -0.87628,0.23061 -1.84481,0.368963 -0.24352,-0.243517 -0.48704,-0.487028 -0.73791,-0.737924 0.20497,-1.680825 0.20497,-1.680825 0.73791,-2.213769 z"
     fill="#6f8c9b"
     id="path57"
     style="stroke-width:0.999998" />
  <path
     d="m 169.28596,197.72942 c 0.9224,0.046 0.9224,0.046 1.29136,0.41509 0.0461,0.92239 0.0461,0.92239 0,1.8448 -0.36896,0.36896 -0.36896,0.36896 -1.31442,0.39202 -0.44518,-0.0107 -0.44518,-0.0107 -0.89935,-0.0231 -0.14069,-0.73475 -0.26314,-1.47318 -0.36896,-2.21377 0.36896,-0.36895 0.36896,-0.36895 1.29137,-0.41509 z"
     fill="#7c99a8"
     id="path58"
     style="stroke-width:0.999998" />
  <path
     d="m 69.11284,196.2997 c 0.784046,0.13831 0.784046,0.13831 1.475848,0.36896 0.23061,0.87628 0.23061,0.87628 0.368962,1.84481 -0.243516,0.24351 -0.487031,0.48703 -0.737923,0.73793 -0.784044,-0.13831 -0.784044,-0.13831 -1.475846,-0.36898 -0.230611,-0.87628 -0.230611,-0.87628 -0.368964,-1.8448 0.243518,-0.24352 0.487029,-0.48704 0.737923,-0.73792 z"
     fill="#7e9cab"
     id="path59"
     style="stroke-width:0.999998" />
  <path
     d="m 92.357432,233.19587 c 0.61817,0.1056 1.233755,0.22794 1.844806,0.36895 0,0.6088 0,1.21758 0,1.84483 -0.876283,0.23061 -0.876283,0.23061 -1.844806,0.36895 -0.243518,-0.24351 -0.487033,-0.48703 -0.737924,-0.73793 0.197651,-1.30454 0.197651,-1.30454 0.737924,-1.8448 z"
     fill="#6c8b99"
     id="path61"
     style="stroke-width:0.999998" />
  <path
     d="m 87.92989,207.73751 c 0.48703,0.24351 0.974057,0.48703 1.475848,0.73793 -0.121742,0.73054 -0.243517,1.46109 -0.368963,2.21376 -0.608787,-0.12178 -1.217574,-0.24352 -1.844807,-0.36896 -0.04612,-0.87628 -0.04612,-0.87628 0,-1.8448 0.243517,-0.24352 0.487028,-0.48704 0.737922,-0.73793 z"
     fill="#92a6b6"
     id="path62"
     style="stroke-width:0.999998" />
  <path
     d="m 123.71918,202.20309 c 0.12174,0 0.24352,0 0.36897,0 0.0709,1.56269 0.13685,3.12549 0.19818,4.68859 0.0217,0.53187 0.0445,1.06371 0.0688,1.59547 0.0348,0.7637 0.0645,1.52746 0.0933,2.29142 0.0292,0.68979 0.0292,0.68979 0.0586,1.3935 -0.0499,1.09987 -0.0499,1.09987 -0.78783,1.83778 -0.24352,-0.2435 -0.48703,-0.48702 -0.73793,-0.73791 0.12178,-0.24352 0.24352,-0.48704 0.36897,-0.73792 0.057,-0.7762 0.0922,-1.55405 0.11673,-2.33196 0.0153,-0.46373 0.0309,-0.92745 0.0468,-1.40522 0.0146,-0.48656 0.0292,-0.97311 0.044,-1.47441 0.016,-0.49436 0.032,-0.98872 0.0483,-1.48306 0.0393,-1.21205 0.0769,-2.42413 0.11314,-3.63628 z"
     fill="#102635"
     id="path63"
     style="stroke-width:0.999998" />
  <path
     d="m 172.05317,74.173359 c 0.78405,0.138345 0.78405,0.138345 1.47585,0.36896 0,0.608787 0,1.217574 0,1.84481 -0.60879,0.121742 -1.21758,0.243517 -1.84481,0.36896 -0.23061,-0.876284 -0.23061,-0.876284 -0.36896,-1.844807 0.24351,-0.243518 0.48703,-0.487031 0.73792,-0.737923 z"
     fill="#738e9d"
     id="path64"
     style="stroke-width:0.999998" />
  <path
     d="m 89.405738,151.28636 c 0.243518,0.36528 0.487027,0.73055 0.737923,1.10689 -0.121741,0.12174 -0.243518,0.24352 -0.368963,0.36896 -0.05845,0.76407 -0.09269,1.53 -0.116728,2.29592 -0.01529,0.46492 -0.03093,0.92983 -0.04686,1.40883 -0.01458,0.49459 -0.02951,0.98918 -0.04395,1.48377 -0.016,0.49604 -0.032,0.99208 -0.04828,1.4881 -0.03929,1.21806 -0.07694,2.43615 -0.113137,3.65431 -0.121741,0 -0.243516,0 -0.368963,0 -0.0092,-1.56286 -0.016,-3.12571 -0.02027,-4.68859 -0.0018,-0.53182 -0.0043,-1.06365 -0.0075,-1.59547 -0.0046,-0.76381 -0.0064,-1.5276 -0.0082,-2.29142 -0.0018,-0.45986 -0.0039,-0.91972 -0.006,-1.39351 0.04188,-1.09986 0.04188,-1.09986 0.410847,-1.83779 z"
     fill="#182832"
     id="path65"
     style="stroke-width:0.999998" />
  <path
     d="m 159.87743,80.445708 c 0.24352,0.487028 0.48703,0.974058 0.73793,1.475848 -1.22609,1.771015 -1.22609,1.771015 -2.4905,2.144591 -0.27395,0.02276 -0.5479,0.04565 -0.83016,0.06919 0.61525,-1.45422 1.55964,-2.504985 2.58273,-3.689616 z"
     fill="#12232f"
     id="path68"
     style="stroke-width:0.999998" />
  <path
     d="m 125.19503,40.597838 c 0.36527,0.243518 0.73055,0.487031 1.10689,0.737924 -0.60879,0.608786 -1.21758,1.217573 -1.84481,1.84481 -0.36528,-0.121777 -0.73055,-0.243519 -1.10689,-0.368961 0.60879,-0.730544 1.21758,-1.46109 1.84481,-2.213773 z"
     fill="#192a36"
     id="path77"
     style="stroke-width:0.999998" />
  <path
     d="m 103.79525,185.59981 c 0.91318,0.18265 0.91318,0.18265 1.84481,0.36896 -0.54791,0.91319 -0.54791,0.91319 -1.10689,1.84481 -0.24352,-0.12178 -0.48703,-0.24352 -0.73792,-0.36896 0,-0.6088 0,-1.21757 0,-1.84481 z"
     fill="#88aebe"
     id="path79"
     style="stroke-width:0.999998" />
  <path
     d="m 203.04595,67.901009 c 0.24352,0 0.48704,0 0.73794,0 -0.12178,0.730546 -0.24352,1.461088 -0.36898,2.213769 -0.48702,-0.121742 -0.97405,-0.243517 -1.47585,-0.368963 0.50734,-0.922401 0.50734,-0.922401 1.10689,-1.844806 z"
     fill="#709aaa"
     id="path83"
     style="stroke-width:0.999998" />
  <path
     d="m 144.38104,20.304943 c -0.42495,0.910598 -0.75557,1.493497 -1.47585,2.213771 -0.36527,-0.12176 -0.73054,-0.243515 -1.10688,-0.368961 1.75257,-1.84481 1.75257,-1.84481 2.58273,-1.84481 z"
     fill="#20303b"
     id="path86"
     style="stroke-width:0.999998" />
</svg>
